<?xml version="1.0" encoding="utf-8"?>
<!-- Generator: Adobe Illustrator 26.3.0, SVG Export Plug-In . SVG Version: 6.00 Build 0)  -->
<svg version="1.1" id="_이어_1" xmlns="http://www.w3.org/2000/svg" xmlns:xlink="http://www.w3.org/1999/xlink" x="0px" y="0px"
	 viewBox="0 0 20 20" style="enable-background:new 0 0 20 20;" xml:space="preserve">
<style type="text/css">
	.st0{fill-rule:evenodd;clip-rule:evenodd;fill:#1889D0;}
</style>
<path class="st0" d="M10,0.3c-3.4,0-6.9,0.6-8.2,1.9c-1,1-1.4,2.8-1.5,4c0,0,0,0.1,0,0.2c0,0.4,0.4,0.8,0.8,0.8c0,0,2-0.2,3.2-0.2
	c0,0,0.1,0,0.1,0c0.4,0,0.8-0.4,0.8-0.8V4.4c0-0.5,0.4-0.9,0.9-0.9H14c0.5,0,0.9,0.4,0.9,0.9V6c0,0.4,0.4,0.8,0.8,0.8
	c0,0,0.1,0,0.1,0c1.2,0.1,3.1,0.2,3.2,0.2c0.4,0,0.8-0.4,0.8-0.8c0-0.1,0-0.2,0-0.2c-0.1-1.1-0.5-3-1.5-4C16.9,0.9,13.4,0.3,10,0.3z
	 M10,10.8c-0.9,0-1.6,0.7-1.6,1.6S9.1,14,10,14s1.6-0.7,1.6-1.6S10.9,10.8,10,10.8z M8.8,7.1v-1c0-0.6-0.4-1-1-1s-1,0.4-1,1v1
	L1.3,13c-0.4,0.4-0.6,0.9-0.6,1.4V16c0,0.9,0.7,1.6,1.6,1.6h0.4v1c0,0.6,0.5,1,1,1s1-0.5,1-1v-1h10.5v1c0,0.6,0.4,1,1,1
	c0.6,0,1-0.5,1-1v-1h0.4c0.9,0,1.6-0.7,1.6-1.6v-1.6c0-0.6-0.2-1.1-0.6-1.4l-5.4-5.8v-1c0-0.6-0.4-1-1-1s-1,0.4-1,1v1L8.8,7.1
	L8.8,7.1z M10,9.2c1.8,0,3.2,1.4,3.2,3.2s-1.4,3.2-3.2,3.2s-3.2-1.4-3.2-3.2S8.2,9.2,10,9.2z"/>
</svg>
