<?xml version="1.0" encoding="UTF-8"?><svg id="_이어_1" xmlns="http://www.w3.org/2000/svg" viewBox="0 0 20 20"><defs><style>.cls-1{fill:#8e6646;fill-rule:evenodd;}</style></defs><path class="cls-1" d="M10,.28C6.55,.28,3.09,.9,1.83,2.13,.79,3.15,.44,4.96,.33,6.1c0,0-.02,.11-.02,.16,0,.45,.36,.81,.81,.81,.05,0,1.99-.16,3.17-.25,.03,0,.06,0,.08-.02,.44-.01,.79-.37,.79-.81v-1.59c0-.49,.4-.89,.9-.89h7.9c.49,0,.89,.4,.89,.89v1.59c0,.44,.36,.8,.79,.81,.03,0,.06,.01,.08,.02,1.17,.1,3.11,.25,3.17,.25,.44,0,.81-.36,.81-.81,0-.05-.02-.16-.02-.16-.12-1.14-.46-2.95-1.51-3.97C16.91,.9,13.45,.28,10,.28Zm0,10.5c-.89,0-1.61,.72-1.61,1.61s.72,1.61,1.61,1.61,1.61-.72,1.61-1.61-.72-1.61-1.61-1.61Zm-1.21-3.63v-1.01c0-.56-.45-1.01-1.01-1.01s-1.01,.45-1.01,1.01v1.01L1.32,12.96c-.38,.37-.61,.88-.61,1.45v1.62c0,.89,.72,1.61,1.61,1.61h.4v1.01c0,.56,.45,1.01,1.01,1.01s1.01-.45,1.01-1.01v-1.01H15.25v1.01c0,.56,.45,1.01,1.01,1.01s1.01-.45,1.01-1.01v-1.01h.4c.89,0,1.61-.72,1.61-1.61v-1.62c0-.57-.23-1.08-.61-1.45l-5.45-5.82v-1.01c0-.56-.45-1.01-1.01-1.01s-1.01,.45-1.01,1.01v1.01h-2.42Zm1.21,2.02c1.78,0,3.23,1.45,3.23,3.23s-1.45,3.23-3.23,3.23-3.23-1.45-3.23-3.23,1.45-3.23,3.23-3.23Z"/></svg>