<?xml version="1.0" encoding="UTF-8"?><svg id="_이어_5" xmlns="http://www.w3.org/2000/svg" viewBox="0 0 1287 2778"><defs><style>.cls-1{stroke-width:1.81px;}.cls-1,.cls-2,.cls-3,.cls-4{stroke:#2d1603;}.cls-1,.cls-3,.cls-4{stroke-miterlimit:10;}.cls-1,.cls-5,.cls-4{fill:#2d1603;}.cls-2{fill:#f9cf85;stroke-linecap:round;stroke-linejoin:round;}.cls-2,.cls-3{stroke-width:4.52px;}.cls-3{fill:none;}.cls-6{fill:#f9e0cd;}.cls-7{fill:#000072;}.cls-8{fill:#fff;}.cls-9{fill:#ffc4a6;}.cls-10{fill:#ffac00;}.cls-11{fill:#ff0031;}.cls-12{fill:#ff4379;}.cls-13{fill:#fcfc2b;}.cls-14{fill:#a77e55;}.cls-15{fill:#dead44;}.cls-16{fill:#0b035b;}.cls-17{fill:#6c9789;}.cls-4{stroke-width:1.94px;}.cls-18{opacity:.3;}.cls-19{opacity:.25;}.cls-20{opacity:.6;}.cls-21{opacity:.5;}</style></defs><g><g class="cls-18"><ellipse class="cls-5" cx="664.89" cy="1836.57" rx="284.3" ry="46.78"/></g><path class="cls-17" d="M742.23,1801.35c68.64,59.64,146.96,24.33,158.13,1.91,18.05-36.22,2.48-94.96,2.12-96.36h.01c.52,.72,8.45,11.1,16.69,5.72,15.8-10.33-5.49-70.01-21.68-100-4.68-8.66-8.92-14.85-11.73-16.65-16.19-10.44-111.11-9.4-111.11-9.4,0,0-3.92,5.09-9.77,13.81-9,13.42-22.59,35.45-33.52,60.82-19.94,46.34-31.02,103.78,10.85,140.14Z"/><g class="cls-20"><path class="cls-8" d="M768.48,1595.12c12.65-.09,94.53-.21,109.47,9.41,2.81,1.8,7.05,7.99,11.73,16.65,13.87,25.71,31.51,73.24,26.29,92.79,1.06-.21,2.13-.65,3.22-1.35,15.8-10.33-5.49-70.01-21.68-100-4.68-8.66-8.92-14.85-11.73-16.65-16.19-10.44-111.11-9.4-111.11-9.4,0,0-2.37,3.08-6.19,8.55Z"/></g><g class="cls-18"><path class="cls-5" d="M731.38,1661.21c25.59-64.04,104.92-54.32,104.92-54.32,0,0-29.35,173.59,11.77,191.6-34.11-17.99-25.85-88.07-25.85-88.07h10.91c.12,20.86,11.49,56.02,30.29,59.82,19.99,4.03,28.58-13.22,28.77-13.69,9.9-30.76,5.45-67.16,5.45-67.16,12.4-12.8,6.65-49.15-.15-76.76,16.19,30,37.47,89.67,21.68,100-8.23,5.37-16.16-5.01-16.69-5.71h-.01c.37,1.39,15.93,60.13-2.12,96.35-11.17,22.42-89.49,57.73-158.13-1.91-41.87-36.37-30.79-93.8-10.85-140.14Z"/></g><path class="cls-5" d="M826.15,1839.64c-24,0-55.95-6.82-87.47-34.21h0c-29.58-25.7-37.72-63.68-24.18-112.89,10.87-39.49,33.42-76.59,45.9-95.18,5.88-8.77,9.81-13.89,9.97-14.1,1.01-1.32,2.57-2.09,4.23-2.11,9.88-.1,97.05-.73,114.1,10.27,12.26,7.91,41.33,73.23,41.44,105.44,.03,9.97-2.66,16.8-8,20.29-3.96,2.58-7.89,2.91-11.45,2.01,3.8,20.58,8.14,59.17-5.48,86.51-6.74,13.52-29.22,26.51-54.68,31.58-6.51,1.3-14.82,2.38-24.39,2.38Zm-48.75-247.68c-1.64,2.23-4.47,6.17-8,11.44-12.11,18.05-33.99,54.01-44.45,92.03-12.34,44.85-5.33,79.11,20.84,101.84h0c40.59,35.27,81.73,33.55,102.64,29.38,26.23-5.22,43.33-18.23,47.1-25.79,16.82-33.76,2.36-90.15,1.74-92.54-.63-2.39,.44-4.92,2.59-6.12,2.16-1.2,4.85-.82,6.55,.97,.15,.16,.31,.35,.44,.53,.05,.07,5.3,7.05,9.38,4.4,1.98-1.3,3.11-5.38,3.09-11.19-.1-31.26-28.94-91.52-36.48-96.38-10.53-6.79-69.09-8.83-105.44-8.56Z"/><path class="cls-5" d="M826.15,1839.64c-24,0-55.95-6.82-87.47-34.21-29.58-25.7-37.72-63.68-24.18-112.89,10.87-39.49,33.42-76.59,45.9-95.18,1.1-1.65,3.03-2.57,4.99-2.38l99.56,9.07c9.05,.82,16.76,7.26,19.17,16.02l23.51,85.15c.03,.1,.06,.2,.09,.3,1.68,6.41,15.79,63.42-2.51,100.14-6.74,13.52-29.22,26.51-54.68,31.58-6.51,1.3-14.82,2.38-24.39,2.38Zm-58.53-233.58c-12.37,18.77-32.71,53.13-42.68,89.36-12.34,44.84-5.33,79.11,20.84,101.84h0c40.59,35.27,81.73,33.55,102.64,29.38,26.23-5.22,43.33-18.23,47.1-25.79,16.59-33.28,2.76-88.57,1.77-92.4-.01-.04-.02-.08-.04-.13h0l-23.57-85.35c-1.23-4.44-5.13-7.7-9.72-8.12l-96.35-8.78Z"/><g class="cls-20"><path class="cls-8" d="M903.59,1767.86c-1.82,9.11-5.16,17.57-10.82,23.89,1.28-3.34,2.25-6.89,2.97-10.53,3.39-16.9,1.61-35.96-.08-47.32-.86-5.81-5.83-10.12-11.7-10.12h-62.56c.19-8.05,.82-13.36,.82-13.36h79.48s7.13,31.3,1.89,57.44Z"/></g><path class="cls-5" d="M866.06,1808.08c-13.06,0-23.86-4.7-32.1-13.96-23.62-26.56-17.39-81.98-17.11-84.33,.32-2.73,2.63-4.78,5.38-4.78h79.47c2.53,0,4.72,1.75,5.28,4.21,.3,1.32,7.33,32.74,1.93,59.7-5.15,25.61-19.96,39.15-42.83,39.16,0,0,0,0-.01,0Zm.01-5.41h0Zm-38.87-86.83c-.91,13.53-1.89,52.27,14.87,71.09,6.18,6.94,14.03,10.32,24,10.32h0c17.56,0,28.1-9.97,32.22-30.46,3.85-19.19,.61-41.76-1.04-50.95h-70.04Z"/><g><path class="cls-17" d="M525.35,1556.36s-42.77,16.52-58.13,61.1c-22.19,64.4,9.54,108.72,9.54,108.72,0,0-2.52-100.91,70.91-159l-22.31-10.82Z"/><path class="cls-5" d="M482.7,1743.98l-10.44-14.58c-1.36-1.9-33.12-47.4-10.27-113.74,16.01-46.47,59.52-63.74,61.36-64.45l2.24-.87,32.39,15.71-6.9,5.46c-36.64,28.98-53.39,69.31-60.99,98.03-8.31,31.42-7.83,56.25-7.82,56.5l.43,17.93Zm42.53-181.54c-8.52,3.96-40.39,20.84-52.79,56.82-12.88,37.38-6.78,67.74-.06,85.74,1.07-10.17,3.1-23.3,6.95-37.93,7.54-28.67,23.73-68.27,58.23-98.64l-12.33-5.98Z"/></g><g><path class="cls-14" d="M624.74,1779.98c0,72.39-111.97,69.45-164.44,66.94-24.98-1.2-45.29-29.97-45.29-66.94s20.28-66.94,45.29-66.94c0,0-2.64-.23,8.26,.03,8.85,3.54,27.44,9.97,34.71,21.29,0,0,35.1-22.91,73.98-13.16,34.6,8.68,47.5,31.15,47.5,58.77Z"/><ellipse class="cls-8" cx="454.03" cy="1780.79" rx="26.79" ry="45.08"/><g class="cls-20"><path class="cls-8" d="M624.74,1779.24c-.03,2.17-.15,4.26-.38,6.3-2.39-23.61-14.39-44.37-45.31-52.14-30.48-7.64-60.45,6.83-71.19,12.56-2.58,1.38-5.77,.76-7.64-1.49-8.65-10.41-23.62-24.26-42.04-21.87-25.21,3.27-40.37,30.74-42.89,64.13-.19-2.46-.28-4.96-.28-7.49,0-36.97,20.28-66.95,45.29-66.95,0,0-2.64-.23,8.26,.04,8.86,3.55,27.45,9.98,34.71,21.29,0,0,35.11-22.91,73.98-13.16,34.6,8.68,47.79,31.15,47.5,58.78Z"/></g><g class="cls-18"><path class="cls-5" d="M624.74,1779.24c-.91,84.88-164.44,66.93-164.44,66.93-25.01,0-45.29-29.98-45.29-66.93,0-7.47,.83-14.64,2.35-21.34,6.02,26.51,24.01,39.24,42.94,45.61,22.42,7.55,136.9,15.02,160.87-47.43,2.54,7.11,3.66,14.91,3.57,23.16Z"/></g><path class="cls-5" d="M496.68,1853.68c-19.55,0-34.07-1.49-36.66-1.77-27.59-.22-49.99-32.4-49.99-71.92s22.33-71.59,49.85-71.92c.52-.07,1.1-.09,1.68-.1,1.24,0,3.4,.04,7.12,.13,.09,0,.17,0,.26,.01,13.72,1.04,27.11,8.53,35.9,19.85,8.53-4.14,29.44-13.08,51.64-13.45,23.5-.38,41.92,5.83,54.77,18.53,17.27,17.06,18.51,40.26,18.48,46.97h0c-.08,17.79-6.76,32.71-19.85,44.34-27.69,24.62-78.41,29.33-113.2,29.33Zm-35.41-135.74c-.31,.06-.64,.09-.97,.09-22.22,0-40.3,27.79-40.3,61.95s18.08,61.95,40.3,61.95c.19,0,.37,.01,.56,.03,1.01,.12,101.79,11.03,142.4-25.08,11.03-9.81,16.42-21.88,16.49-36.93,.03-5.72-1.01-25.51-15.51-39.83-10.87-10.74-26.86-16-47.59-15.65-25.76,.44-50.71,14.11-50.96,14.25-2.3,1.27-5.2,.55-6.62-1.67-6.81-10.6-18.87-18.05-30.77-19-4.14-.1-6.11-.12-7.04-.12Zm163.47,62.04h0Z"/></g><path class="cls-15" d="M785.34,1728.41s30.59-7.38,55.87-23.46c-.32-4.46-.8-8.88-1.43-13.22-1.71-11.75-4.51-23.25-8.32-34.35-24.6-71.98-91.16-127.04-176.73-127.04s-145.56,50.49-169.41,118.66c-4.42,12.59-7.46,25.8-9.05,39.39,1.76,1.41,2.91,2.28,2.91,2.28,0,0,102.51,85.21,306.17,37.74Z"/><path class="cls-14" d="M785.34,1728.41c-203.66,47.47-306.17-37.74-306.17-37.74,0,0-1.14-.87-2.91-2.28-.13,1.11-.27,2.21-.38,3.33-8.68,87.75,64.7,161.38,178.84,161.38,155.99,0,191.32-79.65,186.48-148.16-25.28,16.08-55.87,23.46-55.87,23.46Z"/><g class="cls-18"><path class="cls-5" d="M654.73,1853.1c-114.12,0-187.52-73.63-178.84-161.38,.55-5.51,1.34-10.95,2.35-16.32,14.7,67.74,81.48,118.77,176.49,118.77,125.78,0,173.12-51.79,184.2-107.76,.32,1.76,.6,3.53,.86,5.31,10.37,71.02-18.9,161.38-185.05,161.38Z"/></g><path class="cls-15" d="M831.47,1657.37c-183.8,51.19-306.87,9-346.15-8.37,6.53-18.67,16.03-36.01,28.05-51.36,31.88-40.68,81.6-67.3,141.36-67.3,56.18,0,104.17,23.74,137.47,60.4,17.42,19.18,30.83,41.92,39.28,66.64Z"/><g><ellipse class="cls-8" cx="663.68" cy="1583.89" rx="43.57" ry="21.91" transform="translate(-95.81 43.64) rotate(-3.51)"/><path class="cls-5" d="M659.67,1610.28c-24.18,0-42.98-9.8-43.82-23.46-.9-14.7,19.4-27.51,46.22-29.16,26.82-1.65,48.54,8.58,49.44,23.28h0c.46,7.57-4.49,14.77-13.94,20.28-8.54,4.97-20,8.12-32.28,8.88-1.9,.12-3.78,.17-5.62,.17Zm8.09-44.08c-1.68,0-3.4,.05-5.15,.16-23.07,1.42-38.57,11.64-38.06,19.93,.51,8.29,17.15,16.54,40.22,15.12,10.95-.67,21.05-3.41,28.43-7.71,6.37-3.71,9.88-8.16,9.63-12.22h0c-.47-7.66-14.71-15.28-35.06-15.28Z"/></g><g><ellipse class="cls-8" cx="582.38" cy="1576.05" rx="21.91" ry="33.79" transform="translate(-1059.52 1932.81) rotate(-81.98)"/><path class="cls-5" d="M586.69,1602.11c-2.57,0-5.21-.18-7.9-.56-20.89-2.94-35.68-16.45-33.66-30.75s19.96-23.19,40.85-20.25c20.89,2.94,35.68,16.45,33.66,30.75h0c-1.75,12.45-15.6,20.81-32.95,20.81Zm-8.34-44.42c-13.34,0-24.44,5.82-25.62,14.18-1.37,9.7,11.06,19.81,27.14,22.08,16.07,2.26,30.81-4.02,32.18-13.72s-11.06-19.81-27.14-22.08c-2.22-.31-4.42-.46-6.56-.46Z"/></g><path class="cls-5" d="M654.73,1858.42c-61.43,0-114.06-20.75-148.19-58.42-27.15-29.97-39.92-68.61-35.95-108.81,1.49-15.05,4.75-29.85,9.7-43.96,12.41-35.46,34.77-65.7,64.67-87.44,31.3-22.75,69.25-34.78,109.76-34.78s81.57,13,114.42,37.59c31.25,23.39,54.54,55.57,67.35,93.05,3.93,11.45,6.8,23.33,8.55,35.3,6.42,43.96-3.58,83.82-28.14,112.23-31.69,36.65-86.26,55.24-162.18,55.24Zm0-322.77c-75.4,0-139.92,45.18-164.39,115.09-4.67,13.32-7.75,27.28-9.16,41.49-3.67,37.16,8.13,72.89,33.24,100.61,32.09,35.42,81.92,54.93,140.3,54.93,72.69,0,124.55-17.35,154.13-51.56,28.85-33.37,29.88-74.83,25.66-103.73-1.65-11.33-4.37-22.56-8.09-33.39-25.62-74.99-93.02-123.44-171.7-123.44Z"/><path class="cls-15" d="M845.87,1613.78c-3.2-8.7-7.45-16.75-12.39-23.92,0,0,0-.01-.01-.01-1.14-1.66-2.32-3.28-3.53-4.85-1.72-2.23-3.51-4.36-5.36-6.39,0,0-.1-.11-.29-.32-.55-.59-1.08-1.16-1.62-1.72l-.08-.08c-15.88-16.44-35.09-24.83-49.51-20.2-27.99,8.99-29.45,36.69-28.9,47.54,32.69,7,40.09,13.12,40.09,13.12,0,0,27.42-22.29,61.6-3.16Z"/><path class="cls-14" d="M845.87,1613.78c-34.18-19.13-61.6,3.16-61.6,3.16,0,0-7.4-6.11-40.09-13.12,.14,2.75,.41,4.42,.41,4.42,0,0-1.42-.01-3.84,.1-12.44,.57-51.49,4.56-63.45,32.02-3.19,7.31-4.45,16.28-2.78,27.3,.13,.92,.29,1.85,.47,2.81,13.08,68.71,151.87,76.99,172.95,7.39,6.93-22.87,4.95-45.02-2.07-64.07Z"/><g class="cls-20"><path class="cls-8" d="M833.47,1589.85c-9.72-4.22-23.87-14.89-30.54-12.09-13.68,5.73-13.11,45.17-13.11,45.17,0,0-90.61-21.01-115.3,44.73-1.67-11.01-.41-19.98,2.78-27.3,11.96-27.46,51.01-31.44,63.45-32.02,2.42-.11,3.84-.1,3.84-.1,0,0-6.61-40.68,28.48-51.95,14.42-4.63,33.64,3.76,49.51,20.2l.08,.08c.54,.56,1.07,1.14,1.62,1.72,.19,.2,.29,.32,.29,.32,1.85,2.03,3.64,4.16,5.36,6.39,1.21,1.57,2.4,3.19,3.53,4.85Z"/></g><path class="cls-5" d="M764.76,1731.4c-2.33,0-4.65-.06-6.94-.18-38.51-2.04-80.64-21.32-87.96-59.78-3.28-17.2-.4-31.68,8.56-43.02,15.94-20.18,46.38-24.37,60.42-25.21-.8-16.72,5.02-43.03,32.64-51.89,16.03-5.15,37.06,3.1,54.87,21.54l.09,.09c.56,.58,1.12,1.17,1.68,1.79l.33,.37c20.34,22.31,37.47,61.44,24.49,104.25h0c-11.03,36.4-51.08,52.04-88.18,52.04Zm-20.47-117.94c-.45,0-1.6,.01-3.28,.09-9.16,.42-40.07,3.19-54.4,21.33-7,8.86-9.18,20.5-6.5,34.6,6.26,32.9,43.82,49.47,78.25,51.3,34.83,1.84,74.5-11.18,84.58-44.45h0c11.71-38.63-3.81-74-22.23-94.21l-.32-.35c-.46-.5-.98-1.05-1.49-1.58-14.87-15.39-32.21-22.79-44.24-18.92-30.46,9.78-25.16,44.66-24.92,46.14,.25,1.53-.19,3.08-1.2,4.25-1.01,1.17-2.47,1.82-4.03,1.81,0,0-.08,0-.22,0Z"/><path class="cls-5" d="M744.77,1603.02c.51,.03,.9,.07,1.31,.11,.42,.03,.82,.08,1.21,.13,.79,.09,1.59,.18,2.36,.31,1.56,.21,3.1,.5,4.64,.78,1.53,.3,3.05,.65,4.57,.98,1.5,.39,3.01,.76,4.51,1.18,5.98,1.67,11.79,3.9,17.38,6.59,2.83,1.27,5.5,2.87,8.22,4.36l3.92,2.52c.65,.43,1.32,.82,1.94,1.28l1.87,1.39c5.08,3.58,9.54,7.96,13.81,12.44,1.41,1.48,1.35,3.82-.13,5.23-1.44,1.37-3.69,1.35-5.11,0l-.18-.17c-4.1-3.93-8.31-7.76-13.1-10.82l-1.75-1.2c-.58-.4-1.22-.73-1.82-1.09l-3.67-2.15c-2.55-1.24-5.04-2.61-7.68-3.66-5.21-2.24-10.62-4.05-16.14-5.34l-4.15-.9c-1.39-.24-2.78-.51-4.18-.71-1.39-.19-2.79-.4-4.18-.52-.7-.08-1.38-.13-2.07-.18-.35-.03-.68-.05-1.01-.06l-.91-.04h-.14c-2.88-.12-5.12-2.55-5.01-5.43,.11-2.88,2.54-5.12,5.42-5.01h.08Z"/><path class="cls-17" d="M822.59,1576.49c-4.4-4.4-15.48-13.86-26.05-9.97-13.59,5.01-18.81,35.47-16.9,50.95,0,0-15.87-7.85-38.89-9.12,2.43-.12,3.84-.1,3.84-.1,0,0-6.61-40.69,28.48-51.95,14.43-4.64,33.64,3.76,49.52,20.2Z"/><path class="cls-16" d="M826.47,1580.02c-.39,.23-.91,.51-1.64,.73-.71,.22-1.66,.34-2.59,.21-.93-.12-1.78-.48-2.41-.87-.32-.2-.59-.4-.82-.6l-.32-.29-.06-.06-.88-.83c-.6-.54-1.21-1.08-1.83-1.59-1.24-1.02-2.52-1.99-3.84-2.81-2.62-1.71-5.4-2.88-8.02-3.36-.64-.04-1.31-.2-1.92-.14-.31,.01-.63-.02-.94,.01l-.91,.13c-.31,.01-.6,.12-.89,.2-.29,.09-.59,.15-.87,.24l-.75,.32-.75,.42c-2.03,1.27-3.93,3.63-5.47,6.32-3.09,5.48-4.98,12.14-6.19,18.79-.6,3.34-1.03,6.74-1.23,10.12-.21,3.38-.2,6.77,.13,9.97h0c.28,2.34-1.38,4.46-3.72,4.74-.78,.09-1.53-.03-2.2-.32l-.18-.08c-1.25-.55-2.83-1.15-4.3-1.68-1.5-.52-3.02-1.03-4.56-1.48-3.08-.91-6.19-1.7-9.34-2.33-3.15-.62-6.32-1.17-9.51-1.51-3.18-.4-6.38-.58-9.57-.72h-.2c-2.87-.21-5.05-2.69-4.85-5.56,.18-2.7,2.42-4.79,5.07-4.86l4.17-.1h0l-5.23,6.06c-.14-.88-.19-1.48-.27-2.21-.07-.69-.12-1.38-.16-2.06-.08-1.36-.13-2.72-.13-4.08,0-2.72,.14-5.43,.45-8.14,.65-5.41,1.88-10.85,4.11-16.02,2.19-5.16,5.37-10.07,9.46-14.1,4.04-4.1,8.99-7.19,14.14-9.38,1.28-.61,2.61-.98,3.92-1.48,.62-.25,1.42-.41,2.13-.61,.73-.17,1.46-.42,2.2-.51,1.48-.21,2.96-.48,4.43-.49,.73-.02,1.47-.08,2.2-.06l2.17,.11c5.79,.38,11.2,2.05,16.21,4.26,5.01,2.22,9.64,5.04,13.93,8.21,2.16,1.58,4.21,3.28,6.2,5.03l1.47,1.34,.73,.67,.37,.34c.24,.23,.5,.5,.75,.78,.51,.58,1.06,1.29,1.51,2.15,.46,.86,.79,1.88,.93,2.85,.27,1.99-.07,3.42-.12,4.34Zm-6.94-7.06c-.94,.04-2.18,.57-2.8,1.68-.31,.53-.42,1.11-.41,1.52,0,.42,.1,.69,.17,.82,.03,.07,.07,.11,.08,.12l-.33-.3-.66-.6-1.33-1.19c-1.79-1.56-3.63-3.06-5.54-4.44-3.81-2.78-7.85-5.19-12.06-7.03-4.19-1.82-8.58-3.1-12.85-3.34l-1.6-.08c-.53,0-1.04,.05-1.57,.06-1.06,0-2.05,.22-3.07,.35-.51,.06-.98,.25-1.47,.36-.5,.15-.95,.2-1.5,.43-1.04,.41-2.14,.71-3.14,1.2-4.08,1.78-7.82,4.14-10.83,7.25-3.06,3.05-5.45,6.77-7.17,10.87-1.77,4.08-2.8,8.56-3.35,13.13-.27,2.29-.39,4.61-.38,6.92,0,1.16,.04,2.31,.11,3.46,.04,.57,.08,1.14,.13,1.7,.05,.53,.13,1.18,.18,1.54,.45,2.86-1.51,5.54-4.37,5.99-.21,.03-.42,.05-.62,.06h-.24l-3.49,.1,.03-10.43h0c3.49,.32,6.96,.69,10.4,1.29,3.45,.54,6.85,1.3,10.23,2.14,3.38,.85,6.71,1.87,10,3.02,1.65,.57,3.28,1.2,4.91,1.85,1.65,.69,3.18,1.34,4.95,2.22l-6.1,4.33h0c-.5-3.91-.57-7.69-.43-11.45,.14-3.76,.52-7.48,1.1-11.19,.61-3.7,1.41-7.39,2.52-11.04,1.1-3.65,2.5-7.27,4.43-10.81,1.98-3.49,4.46-7.05,8.47-9.71,.51-.31,1.04-.61,1.57-.91,.55-.27,1.13-.52,1.7-.76,.57-.21,1.13-.36,1.7-.53,.57-.17,1.13-.34,1.72-.41l1.75-.26c.58-.06,1.16-.05,1.74-.07,1.17-.07,2.28,.12,3.42,.22,4.43,.72,8.35,2.46,11.75,4.58,1.73,1.05,3.32,2.22,4.86,3.44,.77,.61,1.51,1.25,2.25,1.89l1.08,.99,.06,.06c-.06-.06-.13-.11-.2-.17-.15-.12-.34-.25-.58-.37-.47-.24-1.16-.44-1.93-.41-.77,.02-1.55,.3-2.11,.68-.56,.38-.92,.81-1.16,1.2Z"/><g class="cls-20"><path class="cls-8" d="M822.23,1576.13c-4.61-4.52-15.39-13.4-25.69-9.61-.69,.26-1.35,.57-1.99,.94-5.14-.89-10.06-.7-14.51,.73-23.52,7.54-28.3,28.32-28.9,41.19-3.25-.47-6.74-.84-10.39-1.05,2.42-.11,3.84-.1,3.84-.1,0,0-6.61-40.68,28.48-51.95,14.32-4.59,33.36,3.64,49.16,19.84Z"/></g><path class="cls-5" d="M826.47,1580.02c-.39,.23-.91,.51-1.64,.73-.71,.22-1.66,.34-2.59,.21-.93-.12-1.78-.48-2.41-.87-.32-.2-.59-.4-.82-.6l-.32-.29-.06-.06-.88-.83c-.6-.54-1.21-1.08-1.83-1.59-1.24-1.02-2.52-1.99-3.84-2.81-2.62-1.71-5.4-2.88-8.02-3.36-.64-.04-1.31-.2-1.92-.14-.31,.01-.63-.02-.94,.01l-.91,.13c-.31,.01-.6,.12-.89,.2-.29,.09-.59,.15-.87,.24l-.75,.32-.75,.42c-2.03,1.27-3.93,3.63-5.47,6.32-3.09,5.48-4.98,12.14-6.19,18.79-.6,3.34-1.03,6.74-1.23,10.12-.21,3.38-.2,6.77,.13,9.97h0c.28,2.34-1.38,4.46-3.72,4.74-.78,.09-1.53-.03-2.2-.32l-.18-.08c-1.25-.55-2.83-1.15-4.3-1.68-1.5-.52-3.02-1.03-4.56-1.48-3.08-.91-6.19-1.7-9.34-2.33-3.15-.62-6.32-1.17-9.51-1.51-3.18-.4-6.38-.58-9.57-.72h-.2c-2.87-.21-5.05-2.69-4.85-5.56,.18-2.7,2.42-4.79,5.07-4.86l4.17-.1h0l-5.23,6.06c-.14-.88-.19-1.48-.27-2.21-.07-.69-.12-1.38-.16-2.06-.08-1.36-.13-2.72-.13-4.08,0-2.72,.14-5.43,.45-8.14,.65-5.41,1.88-10.85,4.11-16.02,2.19-5.16,5.37-10.07,9.46-14.1,4.04-4.1,8.99-7.19,14.14-9.38,1.28-.61,2.61-.98,3.92-1.48,.62-.25,1.42-.41,2.13-.61,.73-.17,1.46-.42,2.2-.51,1.48-.21,2.96-.48,4.43-.49,.73-.02,1.47-.08,2.2-.06l2.17,.11c5.79,.38,11.2,2.05,16.21,4.26,5.01,2.22,9.64,5.04,13.93,8.21,2.16,1.58,4.21,3.28,6.2,5.03l1.47,1.34,.73,.67,.37,.34c.24,.23,.5,.5,.75,.78,.51,.58,1.06,1.29,1.51,2.15,.46,.86,.79,1.88,.93,2.85,.27,1.99-.07,3.42-.12,4.34Zm-6.94-7.06c-.94,.04-2.18,.57-2.8,1.68-.31,.53-.42,1.11-.41,1.52,0,.42,.1,.69,.17,.82,.03,.07,.07,.11,.08,.12l-.33-.3-.66-.6-1.33-1.19c-1.79-1.56-3.63-3.06-5.54-4.44-3.81-2.78-7.85-5.19-12.06-7.03-4.19-1.82-8.58-3.1-12.85-3.34l-1.6-.08c-.53,0-1.04,.05-1.57,.06-1.06,0-2.05,.22-3.07,.35-.51,.06-.98,.25-1.47,.36-.5,.15-.95,.2-1.5,.43-1.04,.41-2.14,.71-3.14,1.2-4.08,1.78-7.82,4.14-10.83,7.25-3.06,3.05-5.45,6.77-7.17,10.87-1.77,4.08-2.8,8.56-3.35,13.13-.27,2.29-.39,4.61-.38,6.92,0,1.16,.04,2.31,.11,3.46,.04,.57,.08,1.14,.13,1.7,.05,.53,.13,1.18,.18,1.54,.45,2.86-1.51,5.54-4.37,5.99-.21,.03-.42,.05-.62,.06h-.24l-3.49,.1,.03-10.43h0c3.49,.32,6.96,.69,10.4,1.29,3.45,.54,6.85,1.3,10.23,2.14,3.38,.85,6.71,1.87,10,3.02,1.65,.57,3.28,1.2,4.91,1.85,1.65,.69,3.18,1.34,4.95,2.22l-6.1,4.33h0c-.5-3.91-.57-7.69-.43-11.45,.14-3.76,.52-7.48,1.1-11.19,.61-3.7,1.41-7.39,2.52-11.04,1.1-3.65,2.5-7.27,4.43-10.81,1.98-3.49,4.46-7.05,8.47-9.71,.51-.31,1.04-.61,1.57-.91,.55-.27,1.13-.52,1.7-.76,.57-.21,1.13-.36,1.7-.53,.57-.17,1.13-.34,1.72-.41l1.75-.26c.58-.06,1.16-.05,1.74-.07,1.17-.07,2.28,.12,3.42,.22,4.43,.72,8.35,2.46,11.75,4.58,1.73,1.05,3.32,2.22,4.86,3.44,.77,.61,1.51,1.25,2.25,1.89l1.08,.99,.06,.06c-.06-.06-.13-.11-.2-.17-.15-.12-.34-.25-.58-.37-.47-.24-1.16-.44-1.93-.41-.77,.02-1.55,.3-2.11,.68-.56,.38-.92,.81-1.16,1.2Z"/><g class="cls-18"><path class="cls-5" d="M847.94,1677.85c-21.08,69.6-159.87,61.32-172.95-7.39-2.35-12.3-1.15-22.18,2.31-30.1,19.08,27.14,70.05,51.36,118.73,31.33,40.27-16.57,40.03-57.17,33.91-86.69,17.89,23.12,28.84,57.12,18.01,92.85Z"/></g><path class="cls-5" d="M786.27,1619.4l-3.99-4.91c.31-.26,7.82-6.28,19.89-9.56,11.15-3.03,28.46-4.19,47.61,7.47l-3.29,5.4c-32.93-20.04-59.94,1.38-60.21,1.6Z"/><path class="cls-5" d="M660.04,1746.84c-4.9,0-9.76-.09-14.59-.26-33.02-1.17-64.44-6.34-93.41-15.37-49.53-15.43-74.42-36.54-75.46-37.43l5-6.23c.24,.21,25,21.13,73.17,36.05,28.29,8.76,59.01,13.78,91.31,14.9,40.4,1.4,83.4-3.32,127.8-14.04l1.78,7.89c-39.9,9.63-78.71,14.49-115.6,14.49Z"/><g><circle class="cls-8" cx="595.47" cy="1628.87" r="8.52"/><path class="cls-5" d="M595.49,1640.7c-.83,0-1.66-.09-2.49-.26-6.38-1.36-10.46-7.65-9.1-14.03,1.36-6.38,7.65-10.46,14.03-9.1,3.09,.66,5.74,2.48,7.46,5.13s2.3,5.81,1.64,8.9c-.66,3.09-2.48,5.74-5.13,7.46-1.94,1.26-4.15,1.91-6.41,1.91Zm-.03-17.04c-2.41,0-4.57,1.68-5.09,4.12-.6,2.81,1.2,5.58,4.01,6.18,2.81,.6,5.58-1.2,6.18-4.01h0c.29-1.36,.03-2.75-.72-3.92-.76-1.17-1.92-1.97-3.28-2.26-.36-.08-.73-.12-1.09-.12Z"/></g><g><circle class="cls-8" cx="582.87" cy="1670.46" r="8.52"/><path class="cls-5" d="M582.87,1682.29c-.81,0-1.64-.08-2.47-.26-6.38-1.36-10.46-7.66-9.1-14.03,.66-3.09,2.48-5.74,5.13-7.46,2.65-1.72,5.81-2.3,8.9-1.64,3.09,.66,5.74,2.48,7.46,5.13,1.72,2.65,2.3,5.81,1.64,8.9-1.18,5.55-6.1,9.36-11.56,9.36Zm-.01-17.04c-.99,0-1.97,.29-2.82,.84-1.17,.76-1.97,1.92-2.26,3.29-.6,2.81,1.2,5.58,4.01,6.18,2.81,.6,5.58-1.2,6.18-4.01,.29-1.36,.03-2.75-.72-3.92-.76-1.17-1.92-1.97-3.28-2.26-.37-.08-.73-.12-1.1-.12Z"/></g><g><g><path class="cls-14" d="M730.55,1313.22c0,33.96,27.53,61.5,61.5,61.5,15.47,0,29.62-5.72,40.43-15.16,12.92-11.26,21.08-27.84,21.08-46.34,0-33.98-27.53-61.51-61.51-61.51-15.03,0-28.8,5.39-39.49,14.35-13.46,11.28-22.01,28.23-22.01,47.16Z"/><g class="cls-18"><path class="cls-7" d="M730.55,1313.22c0,33.96,27.53,61.5,61.5,61.5,15.47,0,29.62-5.72,40.43-15.16-12.53-32.83-36-70.36-79.92-93.5-13.46,11.28-22.01,28.23-22.01,47.16Z"/></g><g class="cls-20"><path class="cls-8" d="M795.77,1262.88c-15.03,0-28.8,5.39-39.49,14.35-13.46,11.28-22.01,28.23-22.01,47.16,0,4.74,.55,9.35,1.57,13.79-3.39-7.63-5.3-16.07-5.3-24.96,0-18.93,8.55-35.87,22.01-47.16,10.69-8.96,24.45-14.35,39.49-14.35,29.23,0,53.67,20.38,59.94,47.71-9.57-21.53-31.13-36.54-56.21-36.54Z"/></g><path class="cls-5" d="M792.05,1379.27c-36.43,0-66.06-29.64-66.06-66.06s29.64-66.06,66.06-66.06,66.06,29.64,66.06,66.06-29.64,66.06-66.06,66.06Zm0-123c-31.4,0-56.94,25.54-56.94,56.94s25.54,56.94,56.94,56.94,56.94-25.54,56.94-56.94-25.54-56.94-56.94-56.94Z"/></g><g><path class="cls-14" d="M578.95,1313.22c0,33.96-27.53,61.5-61.5,61.5-15.47,0-29.62-5.72-40.43-15.16-12.92-11.26-21.08-27.84-21.08-46.34,0-33.98,27.53-61.51,61.51-61.51,15.03,0,28.8,5.39,39.49,14.35,13.46,11.28,22.01,28.23,22.01,47.16Z"/><g class="cls-20"><path class="cls-8" d="M513.73,1262.88c15.03,0,28.8,5.39,39.49,14.35,13.46,11.28,22.01,28.23,22.01,47.16,0,4.74-.55,9.35-1.57,13.79,3.39-7.63,5.3-16.07,5.3-24.96,0-18.93-8.55-35.87-22.01-47.16-10.69-8.96-24.45-14.35-39.49-14.35-29.23,0-53.67,20.38-59.94,47.71,9.57-21.53,31.13-36.54,56.21-36.54Z"/></g><path class="cls-5" d="M517.45,1379.27c-36.43,0-66.06-29.64-66.06-66.06s29.64-66.06,66.06-66.06,66.06,29.64,66.06,66.06-29.64,66.06-66.06,66.06Zm0-123c-31.4,0-56.94,25.54-56.94,56.94s25.54,56.94,56.94,56.94,56.94-25.54,56.94-56.94-25.54-56.94-56.94-56.94Z"/></g><g><path class="cls-9" d="M793.39,1335.34s31.22-3.22,27.58-32.95c-3.16-25.78-41.52-21.2-47.19,2.41,0,0,12.64,14.47,19.62,30.55Z"/><g class="cls-19"><path class="cls-5" d="M814.66,1324.74s.83-24.44-10.6-29.3c-11.14-4.74-24.64,10.28-24.92,16.11l-5.32-7.48s4.65-17,23.66-19.2c18.79-2.18,32.98,14.37,17.18,39.88Z"/></g><path class="cls-5" d="M790.26,1337.06c-6.61-15.2-19.21-29.59-19.34-29.73-.71-.8-.96-1.86-.69-2.88,4.7-14.13,19.04-23.2,32.04-22.08,9.61,.83,20.33,7.62,23.33,21.19,5,23.84-18.3,35.31-31.34,35.8-.14,.01-.27,.02-.4,.02-1.56,0-2.97-.9-3.59-2.32Zm-12.17-32.81c3.15,3.69,12.1,15.48,18.18,27.79,6.87-1.44,24.03-5.03,22-25.16-1.02-10.17-9.53-17.36-17.67-17.55-9.62-.22-19.4,5.36-22.51,14.93Z"/></g><g class="cls-18"><path class="cls-5" d="M578.95,1313.22c0,33.96-27.53,61.5-61.5,61.5-15.47,0-29.62-5.72-40.43-15.16,12.53-32.83,36-70.36,79.92-93.5,13.46,11.28,22.01,28.23,22.01,47.16Z"/></g><g><path class="cls-9" d="M520.2,1338.25s-31.22-3.22-27.58-32.95c3.16-25.78,41.52-21.2,47.19,2.41,0,0-12.64,14.47-19.62,30.55Z"/><g class="cls-19"><path class="cls-5" d="M498.93,1327.64s-.83-24.44,10.6-29.3c11.14-4.74,24.64,10.28,24.92,16.11l5.32-7.48s-4.65-17-23.66-19.2c-18.79-2.18-32.98,14.37-17.18,39.88Z"/></g><path class="cls-5" d="M519.75,1342.28c-.13,0-.27,0-.4-.02-13.04-.49-36.34-11.96-31.34-35.8,3-13.58,13.72-20.37,23.33-21.19,12.99-1.12,27.33,7.95,32.04,22.08,.27,1.02,.01,2.08-.69,2.88-.12,.14-12.73,14.53-19.34,29.73-.62,1.42-2.03,2.32-3.59,2.32Zm-6.75-50.06c-8.14,.19-16.64,7.38-17.67,17.55-2.03,20.13,15.13,23.72,22,25.16,6.08-12.31,15.02-24.1,18.18-27.79-3.11-9.57-12.89-15.15-22.51-14.93Z"/></g><g><path class="cls-13" d="M638.04,1202.79s-1.38-13.29,6.36-13.75c7.74-.46,18.08-2.14,20.26,5.78l2.18,7.91-28.79,.06Z"/><g><path class="cls-10" d="M556.79,1296.8s-9.49-97.55,96.09-95.98,97.13,96.95,97.13,96.95c0,0-43-31.16-106.04-26.13-63.04,5.03-77.67,31.83-77.67,31.83l-9.5-6.67Z"/><path class="cls-5" d="M566.28,1307.28c-.78,0-1.54-.23-2.19-.68l-9.5-6.67c-.91-.64-1.5-1.65-1.61-2.76-.17-1.75-3.86-43.24,23.16-72.58,17.32-18.81,43.16-28.09,76.79-27.59,32.95,.49,58.54,10.36,76.06,29.34,27.24,29.5,24.94,69.98,24.83,71.68-.09,1.39-.93,2.62-2.19,3.21-1.26,.59-2.74,.45-3.87-.36-.42-.3-42.7-30.27-103.49-25.42-59.74,4.76-74.49,29.63-74.63,29.88-.53,.94-1.44,1.62-2.5,1.86-.28,.06-.57,.1-.86,.1Zm-5.79-12.56l4.9,3.44c6.41-7.81,26.77-26.24,78.27-30.34,50.69-4.04,88.3,14.51,102.48,22.92-.58-12.34-4.11-39.05-22.82-59.28-16.04-17.34-39.76-26.37-70.5-26.82-31.37-.46-55.27,7.99-71.05,25.12-21.79,23.66-21.65,57.08-21.28,64.95Z"/></g><path class="cls-4" d="M665.63,1200.59c-.29,.12-.63,.17-.97,.13-.99-.13-1.69-.99-1.57-1.92,.19-1.48,.25-5.72-1.67-7.55-2.29-2.2-16.91-1.79-18.82-.07-1.33,1.23-1.76,5.41-1.63,7.98,.05,.94-.72,1.73-1.72,1.76-.99,.03-1.84-.71-1.89-1.65-.06-1.29-.23-7.86,2.71-10.56,3.19-2.94,20.2-3.41,23.91,.15,3.49,3.35,2.79,9.69,2.7,10.4-.08,.61-.49,1.1-1.04,1.33Z"/><path class="cls-1" d="M594.2,1275.21c.31-3.58,.79-7.34,1.51-11.21,5.32-28.41,20.4-48.53,44.79-59.8,.86-.37,1.12-1.46,.62-2.4-.5-.94-1.59-1.39-2.43-1-31.55,14.58-42.71,41.84-46.49,62.14-.8,4.3-1.31,8.45-1.63,12.36l3.61-.08Z"/><path class="cls-1" d="M710.24,1275.21c-.31-3.58-.79-7.34-1.51-11.21-5.32-28.41-20.4-48.53-44.79-59.8-.86-.37-1.12-1.46-.62-2.4,.5-.94,1.59-1.39,2.43-1,31.55,14.58,42.71,41.84,46.49,62.14,.8,4.3,1.31,8.45,1.63,12.36l-3.61-.08Z"/><g class="cls-18"><path class="cls-8" d="M701.19,1457.41c-.41,1.94,2.98,4.3,7.56,5.26,4.59,.96,8.63,.17,9.04-1.78,.41-1.94-3.34-2.59-7.92-3.55-4.59-.96-8.27-1.88-8.68,.07Z"/></g><g><path class="cls-14" d="M833.64,1424.97s-3.81-167.94-178.89-167.94-178.89,167.94-178.89,167.94c-72.56,158.6,178.89,154.87,178.89,154.87,0,0,251.45,3.72,178.89-154.87Z"/><path class="cls-7" d="M656.01,1580.45c-.8,0-1.23,0-1.27,0-.33,.01-35.16,.43-74.63-6.97-36.49-6.84-84.54-21.95-106.19-55.12-16.16-24.75-15.71-56.22,1.34-93.53,.09-2.6,1.83-43.62,23.86-84.12,13.31-24.47,31.31-43.97,53.5-57.95,27.72-17.47,62.08-26.33,102.14-26.33s74.41,8.86,102.14,26.33c22.19,13.98,40.19,33.48,53.5,57.95,22.03,40.5,23.77,81.52,23.86,84.12,17.04,37.31,17.49,68.78,1.34,93.53-21.65,33.17-69.7,48.29-106.19,55.12-35.23,6.6-66.77,6.97-73.38,6.97Zm-1.26-322.82c-90.12,0-133.79,45.47-154.55,83.61-22.52,41.38-23.73,83.31-23.74,83.73l-.05,.24c-16.91,36.96-17.4,68.07-1.47,92.48,21.42,32.81,69.14,47.8,105.4,54.59,39.35,7.37,74.06,6.95,74.41,6.95,.37,0,35.09,.43,74.45-6.95,36.25-6.79,83.96-21.78,105.38-54.59,15.93-24.41,15.43-55.52-1.48-92.47l-.05-.24c0-.42-1.22-42.36-23.74-83.73-20.76-38.14-64.43-83.61-154.55-83.61Z"/></g><g class="cls-18"><path class="cls-5" d="M654.75,1579.84s-245.5,3.64-181.34-149.27c-34.16,126.77,181.34,124.04,181.34,124.04,0,0,219.23,2.4,179.46-128.38,70.66,157.32-179.46,153.62-179.46,153.62Z"/></g><path class="cls-5" d="M680.54,1421.03c-9.38-5.37-25.79-5.07-25.79-5.07,0,0-16.4-.31-25.79,5.07-3.12,1.79-4.39,5.68-3.07,9.03,2.77,7.02,10.21,18.8,28.86,18.8s26.08-11.78,28.86-18.8c1.32-3.35,.05-7.24-3.07-9.03Z"/><path class="cls-5" d="M659.93,1443.01c.07,.63,.09,1.01,.12,1.49l.06,1.35c.02,.9,.03,1.78,0,2.67-.07,1.78-.24,3.55-.53,5.34-.6,3.55-1.66,7.16-3.52,10.57-.94,1.7-2.09,3.34-3.43,4.84-1.32,1.52-2.95,2.8-4.64,3.9-1.71,1.11-3.57,1.89-5.42,2.53-1.87,.56-3.76,.97-5.62,1.1-3.77,.3-7.16,.06-10.74-.6-1.78-.35-3.57-.86-5.32-1.61-1.75-.72-3.48-1.67-5.04-2.9-3.13-2.43-5.55-6.01-6.31-9.74-.74-3.75-.27-7.42,1.55-10.61,.31-.54,1.01-.73,1.55-.42,.28,.16,.46,.42,.54,.71l.04,.17c.76,3.03,1.57,5.84,2.69,8.14,1.12,2.29,2.52,4.14,4.55,5.38,.99,.64,2.12,1.11,3.33,1.47,.59,.21,1.24,.32,1.87,.47,.66,.1,1.3,.23,1.97,.29,2.66,.29,5.64,.26,8.15-.16,1.29-.2,2.47-.56,3.61-.95,1.09-.47,2.15-.96,3.06-1.64,1.83-1.32,3.29-3.09,4.41-5.26,1.07-2.2,1.87-4.7,2.27-7.39,.22-1.34,.37-2.71,.43-4.09,.03-.69,.06-1.38,.06-2.06v-1.01l-.05-.87v-.33c-.14-2.87,2.09-5.3,4.97-5.43,2.75-.12,5.1,1.94,5.4,4.64Z"/><path class="cls-5" d="M659.93,1444.12l-.04,.87v1.01c0,.68,.02,1.37,.05,2.06,.07,1.38,.22,2.75,.43,4.09,.4,2.69,1.2,5.19,2.27,7.39,1.11,2.17,2.58,3.94,4.41,5.26,.91,.68,1.96,1.18,3.06,1.64,1.14,.39,2.33,.75,3.61,.95,2.51,.42,5.49,.45,8.15,.16,.68-.07,1.32-.2,1.97-.29,.62-.15,1.28-.26,1.87-.47,1.21-.36,2.34-.84,3.33-1.47,2.03-1.24,3.43-3.09,4.55-5.38,1.12-2.29,1.93-5.1,2.69-8.14l.04-.16c.15-.61,.77-.98,1.38-.83,.31,.08,.56,.28,.71,.54,1.82,3.19,2.29,6.86,1.55,10.61-.76,3.74-3.18,7.32-6.31,9.74-1.56,1.24-3.29,2.18-5.04,2.9-1.76,.75-3.54,1.26-5.32,1.61-3.58,.66-6.97,.9-10.74,.6-1.86-.13-3.75-.55-5.62-1.1-1.86-.64-3.72-1.42-5.42-2.53-1.69-1.1-3.32-2.38-4.64-3.9-1.34-1.5-2.49-3.14-3.43-4.84-1.86-3.41-2.92-7.02-3.52-10.57-.29-1.78-.46-3.56-.53-5.34-.04-.89-.03-1.78,0-2.67l.06-1.35c.03-.49,.06-.86,.12-1.49,.31-2.86,2.88-4.93,5.74-4.62,2.74,.3,4.75,2.67,4.64,5.38v.34Z"/><path class="cls-5" d="M654.75,1514.22h-.12c-14.71,0-22.85-6.61-27.32-14.6-6.85-12.27-5.06-27.8-5.06-27.8,0,0,30.23,10.02,32.39-20.02,2.15,30.04,32.38,20.02,32.38,20.02,0,0,4.87,42.32-32.27,42.41Z"/><path class="cls-12" d="M654.75,1484.11c-19.38,0-27.44,15.5-27.44,15.5,4.47,7.99,12.61,14.6,27.32,14.6h.25c14.71,0,22.85-6.61,27.32-14.6,0,0-8.06-15.5-27.44-15.5Z"/><path class="cls-5" d="M654.63,1518.78c-11.49,0-20.58-3.66-27.02-10.89-12.35-13.86-10-35.68-9.89-36.6,.16-1.36,.92-2.59,2.08-3.32,1.16-.74,2.59-.92,3.89-.48,.11,.04,12.41,3.95,19.99-1.56,3.71-2.7,5.85-7.44,6.39-14.14-.07-1.12-.11-2.28-.11-3.47,0-2.56,2.12-4.6,4.68-4.56,2.53-.03,4.68,2,4.68,4.56,0,1.19-.04,2.35-.11,3.47,.53,6.7,2.67,11.45,6.39,14.14,7.58,5.5,19.88,1.59,20,1.55,1.3-.42,2.73-.24,3.88,.5,1.15,.74,1.92,1.96,2.07,3.32,.11,.92,2.46,22.74-9.9,36.6-6.44,7.23-15.54,10.89-27.02,10.89Zm-28.02-41.32c.11,6.32,1.34,17.12,7.83,24.38,4.64,5.18,11.43,7.81,20.18,7.81s15.57-2.64,20.21-7.84c6.51-7.3,7.73-18.05,7.82-24.36-5.88,.91-15.09,1.14-22.39-4.12-2.25-1.62-4.13-3.62-5.64-5.98-1.52,2.36-3.4,4.35-5.65,5.98-7.29,5.26-16.5,5.03-22.37,4.12Z"/><g><ellipse class="cls-8" cx="654.73" cy="1422.67" rx="14.93" ry="2.43"/><path class="cls-7" d="M654.73,1425.71c-1.59,0-15.54-.09-15.54-3.04s13.95-3.04,15.54-3.04,15.54,.09,15.54,3.04-13.95,3.04-15.54,3.04Zm-14.29-3.04c.66,.66,5.37,1.83,14.29,1.83s13.63-1.17,14.29-1.83c-.66-.66-5.37-1.83-14.29-1.83s-13.63,1.17-14.29,1.83Z"/></g><path class="cls-5" d="M656.48,1584.41c-.91,0-1.49,0-1.73,0-2.21,.02-36,.34-75.37-7.04-54.18-10.15-90.78-29.28-108.77-56.85-16.84-25.8-16.6-58.31,.72-96.62,.29-6.72,2.84-45.62,24.31-85.08,13.64-25.07,32.1-45.06,54.86-59.41,28.36-17.88,63.44-26.94,104.25-26.94s75.88,9.06,104.25,26.94c22.77,14.35,41.22,34.34,54.86,59.41,21.47,39.46,24.02,78.37,24.31,85.08,17.32,38.31,17.56,70.81,.72,96.62-17.99,27.57-54.59,46.7-108.77,56.85-35.21,6.6-65.96,7.04-73.64,7.04Zm-1.73-9.13h.07c1.37,.03,136.62,1.27,176.44-59.76,15.13-23.19,14.54-53.02-1.77-88.66-.26-.56-.4-1.17-.41-1.79-.01-.57-1.28-41.72-23.4-82.18-29.48-53.94-80.26-81.3-150.93-81.3s-121.64,27.45-151.09,81.59c-22.05,40.54-23.23,81.48-23.24,81.89-.01,.62-.15,1.23-.41,1.79-16.3,35.64-16.9,65.46-1.77,88.66,39.82,61.02,175.07,59.78,176.44,59.76h.07Z"/><g><ellipse class="cls-5" cx="570.18" cy="1403.06" rx="34.26" ry="25.02" transform="translate(-929.04 1617.62) rotate(-76.03)"/><ellipse class="cls-8" cx="572.95" cy="1388.83" rx="10.81" ry="9.59" transform="translate(-913.12 1609.52) rotate(-76.03)"/><g class="cls-18"><path class="cls-8" d="M560.56,1410.34c-3.74-.93-7.52,1.35-8.45,5.08s1.35,7.52,5.08,8.45,7.52-1.35,8.45-5.08c.93-3.74-1.35-7.52-5.08-8.45Z"/></g></g><g><ellipse class="cls-5" cx="739.2" cy="1403.06" rx="25.02" ry="34.26" transform="translate(-316.89 219.99) rotate(-13.97)"/><ellipse class="cls-8" cx="736.43" cy="1388.83" rx="9.59" ry="10.81" transform="translate(-313.54 218.89) rotate(-13.97)"/><g class="cls-18"><path class="cls-8" d="M748.83,1410.34c3.74-.93,7.52,1.35,8.45,5.08,.93,3.74-1.35,7.52-5.08,8.45s-7.52-1.35-8.45-5.08c-.93-3.74,1.35-7.52,5.08-8.45Z"/></g></g><path class="cls-5" d="M600.71,1359.57c1.87,1.17,4.39-.05,4.49-2.25,.05-1.05-.36-2.19-1.24-3.17-7.32-8.01-22.75-24.18-28.96-25.2-8.27-1.36-24.77,9.6-25.66,12.43-.89,2.83,18.56,.25,22.13,.75,3.57,.5,27.74,16.49,27.74,16.49,0,0,.75,.47,1.5,.94Z"/><path class="cls-5" d="M705.49,1360.14c-1.83,1.22-4.39,.07-4.55-2.13-.08-1.05,.3-2.2,1.16-3.2,7.1-8.2,22.08-24.79,28.26-25.98,8.23-1.59,25.02,8.92,25.99,11.72,.97,2.8-18.55,.76-22.1,1.36-3.55,.6-27.28,17.25-27.28,17.25,0,0-.74,.49-1.48,.98Z"/><line class="cls-3" x1="651.77" y1="1202.16" x2="651.77" y2="1256.95"/></g><g><path class="cls-13" d="M747.9,1278.47c3.27-2.75,2.67-7.92-1.12-9.89-44-22.88-87.47-22.78-93.04-22.67-5.57-.11-49.04-.22-93.04,22.67-3.79,1.97-4.39,7.14-1.12,9.89l15.65,13.14c2.03,1.7,4.92,1.87,7.13,.41,8.26-5.45,31.16-17.61,71.38-17.73,40.22,.12,63.12,12.28,71.38,17.73,2.21,1.46,5.1,1.29,7.13-.41l15.65-13.14Z"/><path class="cls-5" d="M728.42,1296.67c-1.83,0-3.67-.53-5.3-1.61-7.74-5.11-29.99-17.01-69.38-17.13-39.37,.12-61.62,12.02-69.36,17.13-3.58,2.36-8.19,2.1-11.47-.66l-15.65-13.14c-2.46-2.07-3.72-5.2-3.37-8.4,.35-3.21,2.28-6.01,5.15-7.51,44.76-23.28,89.4-23.18,94.72-23.08,5.32-.1,49.95-.2,94.72,23.08,2.87,1.49,4.79,4.3,5.15,7.51,.35,3.19-.91,6.33-3.37,8.4h0l-15.65,13.14c-1.79,1.5-3.97,2.27-6.17,2.27Zm-74.69-26.01c41.38,.12,65.11,12.86,73.39,18.34,.87,.57,1.99,.51,2.78-.16l15.65-13.14c.86-.72,.86-1.66,.82-2.03-.04-.38-.25-1.32-1.27-1.85-43.38-22.56-86.52-22.35-91.29-22.26-.05,0-.1,0-.15,0-4.77-.09-47.91-.3-91.29,22.26-1.02,.53-1.23,1.47-1.27,1.85-.04,.37-.04,1.31,.82,2.03l15.65,13.14c.8,.67,1.92,.73,2.78,.16,8.28-5.47,32.02-18.21,73.37-18.34Zm94.17,7.82h0Z"/></g></g><g><g><path class="cls-8" d="M470.46,1667.53h0c3.42-.9,5.46-4.41,4.56-7.83l-59.23-223.99c-.9-3.42-4.41-5.46-7.83-4.56h0c-3.42,.9-5.46,4.41-4.56,7.83l59.23,223.99c.9,3.42,4.41,5.46,7.83,4.56Z"/><g class="cls-18"><path class="cls-7" d="M462.63,1662.98l-59.23-223.99c-.9-3.42,1.14-6.93,4.56-7.83h0s.04,0,.06-.01l58.43,220.95c.9,3.4,4.37,5.43,7.77,4.57l.81,3.05c.9,3.42-1.14,6.93-4.56,7.83-3.42,.9-6.93-1.14-7.83-4.56Z"/></g><path class="cls-5" d="M471.31,1670.77h0c-2.52,.67-5.15,.31-7.4-1-2.25-1.31-3.86-3.42-4.53-5.94l-59.23-223.99c-1.38-5.2,1.74-10.56,6.94-11.93,2.52-.67,5.15-.31,7.4,1,2.25,1.31,3.86,3.42,4.53,5.94l59.23,224c1.26,4.78-1.26,9.69-5.72,11.52-.39,.16-.8,.3-1.22,.41Zm-64.68-232.65l59.23,224c.21,.79,.71,1.45,1.42,1.86,.7,.41,1.53,.52,2.32,.31h0c1.63-.43,2.6-2.11,2.17-3.73l-59.23-223.99c-.21-.79-.71-1.45-1.42-1.86-.71-.41-1.53-.52-2.32-.31-.13,.04-.26,.08-.38,.13-1.39,.57-2.18,2.11-1.79,3.6Z"/></g><polygon class="cls-11" points="302.82 1514.69 285.34 1561.05 425.85 1523.89 404.67 1443.79 264.16 1480.95 291.77 1505.05 302.82 1514.69"/><g class="cls-21"><polygon class="cls-8" points="303.61 1521.67 289.14 1560.04 285.34 1561.05 301.04 1519.43 303.61 1521.67"/><polygon class="cls-8" points="405.45 1450.77 270.48 1486.46 264.16 1480.95 404.67 1443.79 425.85 1523.89 424.86 1524.15 405.45 1450.77"/></g><g class="cls-18"><path class="cls-7" d="M285.34,1561.05l140.51-37.16-5.55-20.99c-45.19,20.87-64.5-3.32-64.5-3.32,0,0-5.88,13.38-35.4,14.17-10.2,.27-20.08-3.57-28.63-8.7l11.05,9.64-17.48,46.35Z"/></g><path class="cls-5" d="M426.7,1527.13l-140.5,37.15c-1.21,.32-2.5-.06-3.35-.99-.84-.93-1.09-2.26-.65-3.43l16.66-44.17-36.91-32.21c-.93-.82-1.34-2.08-1.06-3.29,.28-1.21,1.21-2.17,2.41-2.48l140.5-37.15c1.79-.47,3.63,.59,4.1,2.38l21.18,80.09c.23,.86,.1,1.77-.34,2.54-.37,.64-.94,1.14-1.62,1.41-.14,.06-.27,.1-.42,.14Zm-155.57-44.55l33.9,29.59c1.05,.92,1.43,2.4,.93,3.71l-15.19,40.26,130.97-34.63-19.46-73.61-131.15,34.68Z"/></g><path class="cls-14" d="M489.65,1602.06c-7.56-16.97-60.98-18.01-66.19,31.07-5.87,55.36,43.76,61.48,52.07,53.66,15.68-14.74,6.3-23.35,7.67-44.49,1.24-19.09,12.52-26.59,6.45-40.24Z"/><g class="cls-20"><path class="cls-8" d="M490.05,1617.63c-.13-.31-.27-.64-.41-.96-7.55-16.97-60.97-18.02-66.18,31.06-.05,.43-.09,.87-.13,1.3-.5-4.79-.5-10.07,.13-15.91,5.21-49.08,58.63-48.03,66.18-31.06,2.62,5.86,2.03,10.58,.41,15.57Z"/></g><g class="cls-18"><path class="cls-5" d="M475.53,1686.8c-8.31,7.81-57.94,1.7-52.07-53.67,.34-3.25,.91-6.29,1.65-9.12,9,31.83,43.61,34.79,50.42,28.37,3.99-3.75,6.37-7.12,7.69-10.39-.01,.1-.01,.22-.03,.32-1.37,21.15,8.01,29.75-7.67,44.5Z"/></g><path class="cls-5" d="M465.17,1694.89c-6.51,0-13.99-1.69-20.72-5.04-11.48-5.7-30.16-20.73-26.29-57.28,2.66-25.09,17.82-42.21,40.56-45.8,16.21-2.56,31.26,2.96,35.78,13.12h0c4.4,9.89,1.43,17.55-1.44,24.95-2.01,5.18-4.08,10.53-4.56,17.8-.41,6.32,.23,11.56,.8,16.18,1.32,10.74,2.45,20.01-10.14,31.84-3,2.82-8.1,4.22-14.01,4.22Zm1.26-98.08c-1.94,0-3.97,.15-6.04,.48-8.49,1.34-28.58,7.57-31.63,36.4-3.16,29.83,11.17,41.88,19.99,46.4,10.84,5.56,21.27,4.49,23.14,2.82,8.66-8.14,8.06-13.03,6.86-22.79-.59-4.83-1.33-10.85-.85-18.17,.58-8.91,3.17-15.59,5.25-20.96,2.86-7.38,4.13-11.18,1.64-16.77h0c-1.79-4.02-9.14-7.41-18.36-7.41Z"/><path class="cls-2" d="M370.52,1487.69c2.09-1.9,3.13-4.83,2.47-7.78-.98-4.38-5.32-7.14-9.7-6.16-4.11,.92-6.79,4.79-6.3,8.89-1.8-.04-3.63,.13-5.47,.54s-3.57,1.03-5.18,1.83c-1.3-3.91-5.37-6.28-9.48-5.37-4.38,.98-7.14,5.32-6.16,9.7,.66,2.95,2.85,5.16,5.54,6-1.89,4.04-2.51,8.68-1.47,13.32,2.55,11.44,14.18,18.58,25.98,15.95s19.3-14.04,16.75-25.48c-1.03-4.64-3.56-8.57-6.99-11.43Z"/><g><path class="cls-14" d="M815.44,1793.39c-.93,87.14-168.82,68.72-168.82,68.72-25.68,0-46.5-30.77-46.5-68.72s20.82-68.72,46.5-68.72c0,0-2.71-.24,8.48,.04,9.09,3.63,28.17,10.24,35.63,21.85,0,0,36.04-23.52,75.95-13.51,35.53,8.91,49.06,31.98,48.76,60.34Z"/><g class="cls-20"><path class="cls-8" d="M815.45,1793.39c-.03,2.23-.16,4.38-.39,6.47-2.45-24.24-14.77-45.56-46.52-53.53-31.29-7.85-62.06,7.01-73.08,12.89-2.65,1.41-5.93,.78-7.85-1.53-8.88-10.68-24.25-24.9-43.16-22.45-25.89,3.36-41.45,31.56-44.03,65.84-.2-2.53-.29-5.1-.29-7.69,0-37.95,20.82-68.73,46.5-68.73,0,0-2.71-.24,8.48,.04,9.09,3.64,28.18,10.25,35.64,21.85,0,0,36.04-23.52,75.95-13.51,35.52,8.91,49.06,31.98,48.76,60.35Z"/></g><ellipse class="cls-8" cx="643.33" cy="1797.12" rx="28.57" ry="48.08"/><g class="cls-18"><path class="cls-5" d="M815.45,1793.39c-.93,87.14-168.83,68.72-168.83,68.72-25.68,0-46.5-30.78-46.5-68.72,0-7.66,.85-15.03,2.41-21.91,6.18,27.21,24.65,40.28,44.09,46.82,23.02,7.75,140.55,15.42,165.16-48.7,2.61,7.3,3.76,15.3,3.67,23.78Z"/></g><path class="cls-5" d="M683.97,1869.05c-20.07,0-34.97-1.53-37.64-1.82-28.33-.23-51.32-33.26-51.32-73.84s22.92-73.51,51.18-73.84c.53-.07,1.11-.1,1.73-.1,1.27,0,3.49,.04,7.31,.13,.09,0,.18,0,.26,.01,14.09,1.07,27.83,8.76,36.86,20.38,8.75-4.25,30.22-13.42,53.02-13.81,24.13-.4,43.04,5.99,56.23,19.02,17.73,17.51,19,41.34,18.97,48.22-.09,18.26-6.94,33.58-20.38,45.52-28.43,25.27-80.5,30.11-116.22,30.11Zm-36.36-139.36c-.32,.06-.65,.1-.99,.1-22.82,0-41.38,28.53-41.38,63.6s18.56,63.6,41.38,63.6c.19,0,.38,.01,.58,.03,1.04,.12,104.5,11.32,146.19-25.75,11.32-10.07,16.86-22.47,16.93-37.91h0c.03-5.87-1.04-26.19-15.92-40.89-11.16-11.02-27.59-16.43-48.86-16.07-26.45,.45-52.06,14.48-52.32,14.63-2.36,1.31-5.34,.56-6.79-1.71-6.99-10.89-19.38-18.53-31.59-19.51-4.25-.1-6.27-.13-7.23-.13Z"/></g></g><path class="cls-6" d="M931.48,902.98c0-105.47-124.91-190.96-278.98-190.96s-278.98,85.5-278.98,190.96c0,99.07,110.22,180.52,251.31,190.03l27.68,47.94,27.68-47.94c141.08-9.51,251.31-90.96,251.31-190.03Z"/><g><path d="M580.54,790.25c0,1.34-.64,2.5-2.03,2.5h-9.52v5.58c0,5.11,1.05,7.78,4.47,11.27,2.44,2.5,4.88,4.82,6.79,6.45,1.16,1.05,.81,2.67-.12,3.6-.93,.99-2.38,1.34-3.54,.35-1.68-1.51-3.77-3.54-6.16-5.87-3.31-3.37-4.12-4.76-4.36-5.98h-.06c-.29,1.34-1.05,2.73-4.41,6.1-2.32,2.32-4.53,4.47-6.97,6.62-1.22,1.05-2.79,.46-3.66-.52-.93-1.05-1.05-2.61,.12-3.6,2.67-2.38,5.05-4.65,7.49-7.14,3.43-3.48,4.47-6.16,4.47-11.27v-5.58h-9.81c-1.45,0-2.09-1.16-2.09-2.5s.64-2.5,2.09-2.5h25.26c1.39,0,2.03,1.16,2.03,2.5Zm12.08-4.07v45.3c0,1.68-1.39,2.44-2.96,2.44-1.45,0-2.9-.76-2.9-2.44v-45.3c0-1.68,1.45-2.44,2.9-2.44,1.57,0,2.96,.75,2.96,2.44Z"/><path d="M643.67,789.5c0,1.34-.64,2.5-2.03,2.5h-26.31c-.87,0-1.22,.29-1.22,1.16v13.18c0,.87,.35,1.16,1.22,1.16h26.89c1.39,0,2.03,1.16,2.03,2.5s-.64,2.5-2.03,2.5h-13.24v11.44h19.46c1.39,0,2.03,1.1,2.03,2.44s-.64,2.5-2.03,2.5h-44.72c-1.39,0-2.03-1.16-2.03-2.5s.64-2.44,2.03-2.44h19.46v-11.44h-10.45c-3.37,0-4.41-1.05-4.41-4.36v-16.78c0-3.31,1.05-4.36,4.41-4.36h28.92c1.39,0,2.03,1.16,2.03,2.5Z"/><path d="M689.55,786.59v42.63c0,1.57-1.34,2.26-2.67,2.26s-2.73-.7-2.73-2.26v-22.71h-5.87c-.52,9.47-4.3,14.46-11.67,14.46-8.01,0-11.67-5.87-11.67-16.9s3.66-16.9,11.67-16.9c7.38,0,11.09,4.99,11.67,14.4h5.87v-14.98c0-1.57,1.34-2.27,2.73-2.27s2.67,.7,2.67,2.27Zm-29.27,17.48c0,7.72,1.74,11.79,6.33,11.79s6.39-4.07,6.39-11.79-1.74-11.79-6.39-11.79-6.33,4.07-6.33,11.79Zm39.72-18.06v45.65c0,1.57-1.33,2.27-2.73,2.27s-2.67-.7-2.67-2.27v-45.65c0-1.57,1.34-2.26,2.67-2.26s2.73,.7,2.73,2.26Z"/><path d="M726.84,788.92v9c0,4.88,1.1,7.67,4.59,11.38,2.32,2.5,4.7,4.82,6.68,6.62,1.1,.99,.75,2.61-.17,3.6-.87,.93-2.5,1.28-3.54,.29-1.8-1.63-3.77-3.6-5.98-5.92-3.37-3.54-4.18-4.94-4.47-6.16h-.06c-.29,1.34-1.1,2.73-4.47,6.27-2.21,2.32-4.24,4.36-6.74,6.62-1.16,1.1-2.79,.52-3.66-.46-.93-1.04-1.05-2.56,.06-3.6,2.56-2.38,4.99-4.76,7.32-7.26,3.43-3.72,4.59-6.5,4.59-11.38v-9c0-1.68,1.39-2.44,2.9-2.44s2.96,.75,2.96,2.44Zm24.68-2.73v45.3c0,1.68-1.39,2.44-2.9,2.44s-2.85-.76-2.85-2.44v-27.18h-8.83c-1.45,0-2.09-1.1-2.09-2.44s.64-2.5,2.09-2.5h8.83v-13.18c0-1.68,1.39-2.44,2.85-2.44s2.9,.75,2.9,2.44Z"/><path d="M590.93,878.37v10.4c0,3.31-1.1,4.36-4.47,4.36h-10.4v5.81h19.57c1.34,0,1.97,1.1,1.97,2.44s-.64,2.44-1.97,2.44h-44.83c-1.34,0-1.97-1.1-1.97-2.44s.64-2.44,1.97-2.44h19.57v-5.81h-10.4c-3.37,0-4.41-1.05-4.41-4.36v-10.4c0-3.31,1.04-4.36,4.41-4.36h26.48c3.37,0,4.47,1.05,4.47,4.36Zm.12,34.32v11.32c0,1.68-1.45,2.44-2.96,2.44s-2.85-.75-2.85-2.44v-9.58c0-.93-.35-1.22-1.22-1.22h-27.3c-1.39,0-1.97-1.1-1.97-2.44s.58-2.44,1.97-2.44h29.85c3.37,0,4.47,1.05,4.47,4.36Zm-29.73-32.7v7.14c0,.87,.29,1.16,1.22,1.16h21.37c.93,0,1.22-.29,1.22-1.16v-7.14c0-.87-.29-1.16-1.22-1.16h-21.37c-.93,0-1.22,.29-1.22,1.16Z"/><path d="M632.58,877.73c0,1.34-.64,2.44-2.03,2.44h-9.29v3.14c0,3.72,1.05,6.04,3.83,8.3,2.67,2.21,5.17,4.06,6.91,5.28,1.28,.99,1.28,2.38,.46,3.54-.75,.93-2.15,1.68-3.6,.7-1.28-.93-3.66-2.73-6.16-4.7-2.96-2.32-3.95-3.66-4.24-4.82h-.06c-.29,1.28-1.45,2.73-4.36,5.11-2.56,1.97-4.99,3.77-7.2,5.34-1.34,.99-2.85,.29-3.54-.7-.81-1.16-.87-2.67,.46-3.66,2.67-1.92,5.17-3.72,7.9-5.92,2.73-2.27,3.77-4.59,3.77-8.36v-3.25h-9.7c-1.45,0-2.09-1.1-2.09-2.44s.64-2.5,2.09-2.5h24.8c1.39,0,2.03,1.16,2.03,2.5Zm8.77,28.4c3.37,0,4.47,1.05,4.47,4.36v13.3c0,1.68-1.39,2.44-2.9,2.44s-2.9-.76-2.9-2.44v-11.5c0-.87-.35-1.16-1.22-1.16h-26.08c-1.45,0-2.09-1.16-2.09-2.5s.64-2.5,2.09-2.5h28.63Zm4.47-31.48v26.54c0,1.68-1.39,2.44-2.85,2.44s-2.9-.75-2.9-2.44v-10.74h-8.36c-1.45,0-2.09-1.16-2.09-2.5s.64-2.5,2.09-2.5h8.36v-10.8c0-1.68,1.39-2.44,2.9-2.44s2.85,.75,2.85,2.44Z"/><path d="M686.24,878.71c0,1.34-.64,2.5-2.03,2.5h-9.52v5.58c0,5.11,1.05,7.78,4.47,11.27,2.44,2.5,4.88,4.82,6.79,6.45,1.16,1.05,.81,2.67-.12,3.6-.93,.99-2.38,1.34-3.54,.35-1.68-1.51-3.77-3.54-6.16-5.87-3.31-3.37-4.12-4.76-4.36-5.98h-.06c-.29,1.34-1.04,2.73-4.41,6.1-2.32,2.32-4.53,4.47-6.97,6.62-1.22,1.05-2.79,.46-3.66-.52-.93-1.05-1.05-2.61,.12-3.6,2.67-2.38,5.05-4.65,7.49-7.14,3.43-3.48,4.47-6.16,4.47-11.27v-5.58h-9.81c-1.45,0-2.09-1.16-2.09-2.5s.64-2.5,2.09-2.5h25.26c1.39,0,2.03,1.16,2.03,2.5Zm12.08-4.07v45.3c0,1.68-1.39,2.44-2.96,2.44-1.45,0-2.9-.76-2.9-2.44v-45.3c0-1.68,1.45-2.44,2.9-2.44,1.57,0,2.96,.75,2.96,2.44Z"/><path d="M756.17,899.62c0,1.28-.64,2.27-1.97,2.27h-44.83c-1.33,0-1.97-.99-1.97-2.27s.64-2.32,1.97-2.32h44.83c1.34,0,1.97,.99,1.97,2.32Zm-6.62,10.22v3.66c0,3.31-1.1,4.36-4.47,4.36h-24.62c-.64,0-.93,.23-.93,.87v1.92c0,.64,.29,.87,.93,.87h28.46c1.28,0,1.92,1.1,1.92,2.21,0,1.22-.64,2.27-1.92,2.27h-30.49c-3.37,0-4.47-1.05-4.47-4.36v-3.72c0-3.31,1.1-4.36,4.47-4.36h24.62c.58,0,.87-.23,.87-.87v-1.86c0-.64-.29-.93-.87-.93h-27.35c-1.28,0-1.86-1.05-1.86-2.21s.58-2.21,1.86-2.21h29.39c3.37,0,4.47,1.05,4.47,4.36Zm-.35-32.29v3.72c0,3.25-1.1,4.3-4.47,4.3h-23.93c-.64,0-.93,.29-.93,.93v1.92c0,.58,.29,.87,.93,.87h27.82c1.28,0,1.86,1.05,1.86,2.21s-.58,2.21-1.86,2.21h-29.85c-3.37,0-4.47-.99-4.47-4.3v-3.72c0-3.31,1.1-4.36,4.47-4.36h23.93c.64,0,.93-.29,.93-.93v-1.86c0-.58-.29-.87-.93-.87h-26.66c-1.28,0-1.86-1.05-1.86-2.21s.58-2.26,1.86-2.26h28.69c3.37,0,4.47,1.04,4.47,4.36Z"/><path d="M535.99,994.18c0,1.34-.64,2.44-2.03,2.44h-19.46v15.85c0,1.68-1.39,2.44-2.9,2.44s-2.9-.75-2.9-2.44v-15.85h-19.46c-1.39,0-2.03-1.1-2.03-2.44s.64-2.5,2.03-2.5h44.72c1.39,0,2.03,1.16,2.03,2.5Zm-21.43-31.77v3.43h13.88c1.45,0,2.09,1.1,2.09,2.5,0,1.28-.64,2.44-2.09,2.44h-13.94v.87c0,3.08,1.51,5.11,4.88,6.62,3.95,1.74,7.55,3.25,10.98,4.53,1.28,.46,1.57,2.03,1.05,3.31-.52,1.28-1.86,1.92-3.19,1.39-3.08-1.16-6.5-2.56-9.64-3.95-5.23-2.21-6.56-3.89-6.91-5.23h-.06c-.41,1.45-1.74,3.14-6.91,5.34-3.19,1.39-6.56,2.79-9.64,3.95-1.39,.52-2.73-.12-3.25-1.45-.52-1.34-.23-2.9,1.05-3.37,3.43-1.28,7.03-2.79,10.98-4.53,3.37-1.51,4.88-3.54,4.88-6.62v-.87h-13.94c-1.45,0-2.09-1.16-2.09-2.44,0-1.39,.64-2.5,2.09-2.5h13.88v-3.43c0-1.68,1.45-2.44,2.96-2.44s2.96,.76,2.96,2.44Z"/><path d="M561.61,964.68c3.37,0,4.47,1.05,4.47,4.36v6.45c0,9.7-2.85,12.89-20.56,23.81-1.28,.75-2.79,.12-3.54-.99s-.81-2.85,.46-3.66c16.32-9.99,17.83-11.91,17.83-19.4v-4.36c0-.87-.29-1.16-1.22-1.16h-14.98c-1.45,0-2.09-1.16-2.09-2.5s.64-2.56,2.09-2.56h17.54Zm19.75-1.57v15.1h6.39c1.51,0,2.15,1.1,2.15,2.5s-.64,2.56-2.15,2.56h-6.39v25.15c0,1.68-1.39,2.44-2.9,2.44s-2.9-.76-2.9-2.44v-45.3c0-1.68,1.39-2.44,2.9-2.44s2.9,.75,2.9,2.44Z"/><path d="M609.06,963.4v4.94h8.19c1.39,0,2.03,1.16,2.03,2.44s-.64,2.5-2.03,2.5h-22.88c-1.45,0-2.09-1.16-2.09-2.5s.64-2.44,2.09-2.44h8.94v-4.94c0-1.63,1.45-2.38,2.85-2.38,1.51,0,2.9,.75,2.9,2.38Zm8.07,24.62c0,6.45-3.77,11.21-10.92,11.21s-10.98-4.76-10.98-11.21,3.83-11.21,10.98-11.21,10.92,4.7,10.92,11.21Zm-16.84,0c0,3.83,2.03,6.45,5.92,6.45s5.92-2.61,5.92-6.45-2.09-6.5-5.92-6.5-5.92,2.61-5.92,6.5Zm38.1-25.09v45.65c0,1.57-1.34,2.27-2.73,2.27s-2.67-.7-2.67-2.27v-24.57h-6.16v22.18c0,1.51-1.34,2.21-2.67,2.21s-2.67-.7-2.67-2.21v-42.74c0-1.51,1.34-2.21,2.67-2.21s2.67,.7,2.67,2.21v15.62h6.16v-16.15c0-1.57,1.34-2.26,2.67-2.26s2.73,.7,2.73,2.26Z"/><path d="M658.13,965.55v6.91h24.04v-6.91c0-1.63,1.45-2.44,2.85-2.44,1.51,0,2.96,.81,2.96,2.44v20.5c0,3.31-1.1,4.36-4.47,4.36h-10.45v10.45h19.46c1.39,0,2.03,1.1,2.03,2.44s-.64,2.5-2.03,2.5h-44.72c-1.39,0-2.03-1.16-2.03-2.5s.64-2.44,2.03-2.44h19.46v-10.45h-10.45c-3.37,0-4.41-1.05-4.41-4.36v-20.5c0-1.63,1.39-2.44,2.85-2.44s2.9,.81,2.9,2.44Zm1.22,19.92h21.6c.87,0,1.22-.29,1.22-1.16v-6.91h-24.04v6.91c0,.87,.35,1.16,1.22,1.16Z"/><path d="M714.76,966.19v8.89c0,4.88,.87,7.67,3.6,10.98,1.97,2.44,4.07,4.7,5.63,6.39,.99,1.1,.75,2.73-.29,3.66-.93,.87-2.56,.99-3.6-.06-1.16-1.22-2.96-3.19-4.7-5.29-2.61-3.08-3.25-4.53-3.48-5.75h-.06c-.23,1.34-.81,2.79-3.48,5.98-1.74,2.03-3.6,4.12-5.46,6.04-1.04,1.1-2.79,.87-3.66,0-1.05-1.05-1.34-2.67-.23-3.77,2.21-2.38,4.36-4.76,6.39-7.2,2.67-3.31,3.54-6.1,3.54-10.98v-8.89c0-1.68,1.45-2.44,2.9-2.44s2.9,.75,2.9,2.44Zm18.87-2.67v42.63c0,1.57-1.34,2.26-2.67,2.26s-2.73-.7-2.73-2.26v-24.91h-5.81c-1.39,0-2.03-1.1-2.03-2.5s.64-2.5,2.03-2.5h5.81v-12.72c0-1.57,1.34-2.27,2.73-2.27s2.67,.7,2.67,2.27Zm10.45-.58v45.65c0,1.57-1.33,2.27-2.73,2.27s-2.67-.7-2.67-2.27v-45.65c0-1.57,1.34-2.26,2.67-2.26s2.73,.7,2.73,2.26Z"/><path d="M769.82,993.89v7.03h12.08v-7.03c0-1.63,1.39-2.38,2.9-2.38s2.9,.76,2.9,2.38v7.03h10.51c1.39,0,2.03,1.1,2.03,2.38s-.64,2.5-2.03,2.5h-44.72c-1.39,0-2.03-1.16-2.03-2.5s.64-2.38,2.03-2.38h10.51v-7.03c0-1.63,1.33-2.38,2.9-2.38s2.9,.76,2.9,2.38Zm23.93-17.36c0,8.71-6.68,13.82-17.89,13.82s-17.83-5.11-17.83-13.82,6.62-13.82,17.83-13.82,17.89,5.11,17.89,13.82Zm-29.91,0c0,5.11,3.72,8.89,12.02,8.89s12.02-3.77,12.02-8.89-3.72-8.89-12.02-8.89-12.02,3.83-12.02,8.89Z"/><path d="M814.89,1004.11c0,2.15-1.68,3.83-3.83,3.83s-3.83-1.68-3.83-3.83,1.68-3.77,3.83-3.77,3.83,1.63,3.83,3.77Zm-.64-38.45l-.7,27.41c-.06,1.86-1.22,2.5-2.5,2.5s-2.44-.64-2.44-2.5l-.75-27.41c0-1.97,1.28-2.79,3.19-2.79s3.25,.81,3.19,2.79Z"/></g></svg>