<?xml version="1.0" encoding="UTF-8"?><svg id="_이어_2" xmlns="http://www.w3.org/2000/svg" viewBox="0 0 480 140"><defs><style>.cls-1{fill:#fff;}.cls-2{fill:#7c7c7c;}</style></defs><rect class="cls-2" x="15.77" y="6.64" width="448.46" height="126.71" rx="63.32" ry="63.32"/><g><g><path class="cls-1" d="M148.95,87.43c-5.13,0-5.88-1.03-5.88-5.96v-22.23c0-4.94,.75-5.92,5.88-5.92h8.41c2.29,0,3,1.54,3,3.24s-.75,3.24-3,3.24h-5.57c-.68,0-1.22,.55-1.22,1.22v18.72c0,.68,.55,1.22,1.22,1.22h6.4c2.29,0,3,1.54,3,3.24s-.75,3.24-3,3.24h-9.24Zm13.94-14.22h-4.58c-2.37,0-3.32-1.78-3.32-3.4s.91-3.4,3.32-3.4h4.58v-11.14c0-2.21,1.54-3.36,3.36-3.36s3.51,1.18,3.51,3.36v30.29c0,1.9-1.54,3.44-3.44,3.44h0c-1.9,0-3.44-1.54-3.44-3.44v-12.36Zm8.73-17.93c0-2.21,1.7-3.36,3.51-3.36s3.51,1.18,3.51,3.36v30.29c0,1.9-1.54,3.44-3.44,3.44h-.16c-1.9,0-3.44-1.54-3.44-3.44v-30.29Z"/><path class="cls-1" d="M182.64,63.26c0-6.95,4.62-10.7,11.22-10.7s11.25,3.71,11.25,10.7v14.29c0,6.99-4.66,10.7-11.21,10.7s-11.25-3.71-11.25-10.7v-14.29Zm7.82,14.45c0,2.69,1.46,4.03,3.4,4.03s3.44-1.34,3.44-4.03v-14.61c0-2.65-1.5-4.07-3.44-4.03-1.94,.04-3.4,1.42-3.4,4.03v14.61Zm23.1,11.29c-2.18,0-3.95-1.77-3.95-3.95v-29.22c0-2.57,1.86-3.91,3.95-3.91s3.95,1.34,3.95,3.91v29.22c0,2.18-1.77,3.95-3.95,3.95h0Z"/><path class="cls-1" d="M228.41,87.43c-5.13,0-6.08-1.22-6.08-6.16v-21.84c0-4.94,.95-6.12,6.08-6.12h12.36c2.29,0,2.96,1.82,2.96,3.32s-.71,3.36-2.96,3.36h-9.6c-.71,0-1.03,.24-1.03,1.15v5.77h8.29c2.29,0,3.16,1.62,3.16,3.28s-.91,3.24-3.16,3.24h-8.29v6.28c0,.91,.32,1.15,1.03,1.15h11.81c2.29,0,2.96,1.82,2.96,3.32s-.71,3.28-2.96,3.28h-14.57Zm20.73-14.1h-3.12c-2.37,0-3.12-1.78-3.12-3.4s.71-3.4,3.12-3.4h3.12v-10.78c0-2.53,1.86-3.83,3.91-3.83s3.95,1.34,3.95,3.83v29.32c0,2.17-1.76,3.93-3.93,3.93h0c-2.17,0-3.93-1.76-3.93-3.93v-11.75Z"/><path class="cls-1" d="M305.78,66.7c2.09,0,2.84,1.3,2.84,2.65,0,1.42-.79,2.57-2.84,2.57h-11.65v1.74h8.45c3.36,0,4.42,1.22,4.42,3.63v3.76c0,1.24-1,2.24-2.24,2.24h-22.76c-.59,0-.75,.28-.75,.67,0,.43,.16,.71,.75,.71h23.97c1.54,0,2.13,1.07,2.13,2.17,0,.95-.55,2.17-2.13,2.17h-28.24c-3.4,0-4.98-2.29-4.98-4.98v-.12c0-2.76,1.54-4.62,4.98-4.62h21.13v-.71c0-.36-.24-.63-.83-.63h-22.63c-1.46,0-2.25-1.11-2.25-2.13s.67-2.17,2.25-2.17h10.74v-1.74h-11.65c-2.05,0-2.84-1.15-2.84-2.57,0-1.34,.75-2.65,2.84-2.65h31.28Zm-24.56-12.04h17.81c.36-1.97,2.05-2.69,3.95-2.69,2.01,0,3.99,.91,3.99,3.44v7.54c0,1.22-.99,2.21-2.21,2.21h-25.78c-4.78,0-5.65-.67-5.65-5.61v-4.15c0-2.57,1.94-3.44,4.03-3.44,1.74,0,3.47,.79,3.87,2.69Zm17.77,6.08v-1.78h-17.69v.55c0,.79,.28,1.22,1.22,1.22h16.47Z"/><path class="cls-1" d="M320.12,79.1c0,1,.81,1.82,1.82,1.82h11.69c2.41,0,3.36,1.62,3.36,3.2s-.99,3.24-3.36,3.24h-14.57c-3.77,0-6.83-3.06-6.83-6.83v-7.07c0-3.66,2.97-6.63,6.63-6.63h4.82v-5.73c0-.51-.16-1.11-1.07-1.11h-6.63c-2.37,0-3.36-1.66-3.36-3.28s.95-3.32,3.36-3.32h8.65c5.45,0,6.91,1.54,6.91,6.04v12.34c0,.82-.66,1.48-1.48,1.48h-8.12c-1,0-1.82,.81-1.82,1.82v4.03Zm19.07-6.12h-3.28c-2.37,0-3.16-1.54-3.16-3.4s.75-3.4,3.16-3.4h3.28v-10.43c0-2.53,1.86-3.83,3.91-3.83s3.95,1.34,3.95,3.83v29.32c0,2.17-1.76,3.93-3.93,3.93h0c-2.17,0-3.93-1.76-3.93-3.93v-12.1Z"/><path class="cls-1" d="M365.1,81.83v-7.38h-2.96c-6.63,0-10.35-4.82-10.35-10.31v-.87c0-5.49,3.71-10.35,10.35-10.35h13.98c6.63,0,10.35,4.86,10.35,10.35v.87c0,5.49-3.71,10.31-10.35,10.31h-2.96v7.38h11.14c2.41,0,3.32,1.62,3.32,3.2s-.95,3.2-3.32,3.2h-30.33c-2.37,0-3.32-1.58-3.32-3.2s.91-3.2,3.32-3.2h11.14Zm13.15-18.64c0-2.17-1.66-3.83-4.26-3.83h-9.71c-2.61,0-4.26,1.66-4.26,3.83v1.03c0,2.17,1.66,3.83,4.26,3.83h9.71c2.61,0,4.26-1.66,4.26-3.83v-1.03Z"/><path class="cls-1" d="M404.68,67.65v-6.4c0-.55-.36-.99-.99-.99h-9c-2.37,0-3.51-1.74-3.51-3.4s1.11-3.44,3.51-3.44h11.69c4.46,0,6.2,2.09,6.2,5.77v8.49c0,14.06-8.02,19.55-18.09,19.75-1.93,.04-3.91-1.03-3.79-3.4,.08-1.66,1.07-2.96,3.04-3.16,6.67-.63,10.94-3.51,10.94-13.23Zm17.42,21.36c-2.18,0-3.95-1.77-3.95-3.95v-29.22c0-2.57,1.86-3.91,3.95-3.91s3.95,1.34,3.95,3.91v29.22c0,2.18-1.77,3.95-3.95,3.95h0Z"/></g><g><path class="cls-1" d="M71.22,59.88h47.96c.44,0,.85,.05,1.24,.15,.91,.23,1.66,.72,2.19,1.39,.52,.67,.81,1.49,.81,2.4,0,.41-.06,.84-.18,1.28l-6.82,24.29c-.37,1.31-1.25,2.49-2.38,3.34-1.14,.86-2.54,1.39-3.93,1.39H62.15c-.44,0-.85-.05-1.24-.15-.91-.23-1.66-.72-2.19-1.39-.52-.67-.81-1.49-.81-2.4,0-.41,.06-.84,.18-1.28l6.82-24.29c.37-1.31,1.25-2.49,2.38-3.34,1.14-.86,2.54-1.39,3.93-1.39Z"/><path class="cls-1" d="M73.19,50.33h35.8c1.71,0,3.26,.7,4.39,1.82,1.07,1.07,1.75,2.53,1.82,4.14h-45.57c-1.79,0-3.54,.7-4.93,1.8-1.4,1.1-2.48,2.63-2.95,4.36l-5.58,20.84v-26.75c0-.15,0-.31,.02-.48,0-.09,.02-.2,.03-.31-.01-.1-.03-.19-.03-.29-.01-.15-.02-.3-.02-.45v-7.36c0-1.45,.59-2.77,1.55-3.73,.96-.96,2.28-1.55,3.73-1.55h6.48c1.45,0,2.77,.59,3.73,1.55,.96,.96,1.55,2.28,1.55,3.73v2.68Z"/></g></g></svg>