<?xml version="1.0" encoding="UTF-8"?><svg id="_이어_3" xmlns="http://www.w3.org/2000/svg" viewBox="0 0 45 45"><defs><style>.cls-1{fill:#f4f4f4;stroke-miterlimit:10;}.cls-1,.cls-2{stroke:#939393;stroke-width:.21px;}.cls-2{fill:#6ad800;stroke-linecap:round;stroke-linejoin:round;}</style></defs><circle class="cls-1" cx="22.5" cy="22.5" r="21.5"/><g><path class="cls-2" d="M17.65,12.24l8.98,2.57v18.08l-8.98-2.57V12.24Z"/><path class="cls-2" d="M16.12,12.3c0,.16,0,.27,0,.38,0,5.8,0,11.6,0,17.39,0,.3-.1,.42-.37,.53-1.81,.71-3.6,1.44-5.4,2.16-.72,.29-1.33,.09-1.61-.55-.09-.19-.13-.42-.13-.64,0-5.13,0-10.26,0-15.39,0-.58,.24-1.01,.79-1.23,2.19-.88,4.38-1.75,6.57-2.63,.04-.01,.08-.02,.15-.04Z"/><path class="cls-2" d="M28.17,32.83v-.33c0-5.83,0-11.66,0-17.49,0-.26,.07-.38,.32-.47,1.85-.71,3.69-1.45,5.53-2.17,.61-.24,1.07-.18,1.37,.28,.17,.26,.28,.62,.28,.93,.02,3.14,.01,6.29,.01,9.43,0,1.94,0,3.89,0,5.83,0,.73-.25,1.1-.92,1.37-2.08,.83-4.16,1.67-6.25,2.5-.1,.04-.21,.07-.34,.12Z"/></g></svg>