<?xml version="1.0" encoding="UTF-8"?><svg id="_이어_6" xmlns="http://www.w3.org/2000/svg" viewBox="0 0 45 45"><defs><style>.cls-1{fill:#40d3f4;}.cls-1,.cls-2{stroke:#939393;stroke-linecap:round;stroke-linejoin:round;stroke-width:.21px;}.cls-2{fill:#fff;}</style></defs><circle class="cls-1" cx="22.5" cy="22.5" r="21.5"/><path class="cls-2" d="M22.54,9.18c5.09,.12,9.05,3.55,9.84,8.55,.31,2-.17,3.86-.99,5.67-1.6,3.52-3.77,6.68-6.08,9.76-.46,.61-.92,1.21-1.39,1.81-.9,1.13-1.97,1.15-2.86,0-1.08-1.39-2.13-2.81-3.15-4.24-1.63-2.3-3.13-4.69-4.29-7.27-.61-1.36-1.11-2.78-1.11-4.28,0-1.79,.42-3.5,1.36-5.04,1.96-3.23,4.9-4.79,8.67-4.93Zm0,5.98c-1.85-.01-3.38,1.49-3.39,3.34,0,1.82,1.48,3.35,3.29,3.37,1.86,.02,3.39-1.47,3.41-3.31,.02-1.86-1.48-3.39-3.32-3.4Z"/></svg>