<?xml version="1.0" encoding="UTF-8"?><svg id="_이어_7" xmlns="http://www.w3.org/2000/svg" viewBox="0 0 45 45"><defs><style>.cls-1{fill:#ff8a61;}.cls-1,.cls-2{stroke:#939393;stroke-linecap:round;stroke-linejoin:round;stroke-width:.21px;}.cls-2{fill:#fff;}</style></defs><circle class="cls-1" cx="22.5" cy="22.5" r="21.5"/><g><path class="cls-2" d="M22.48,34.84c-.54,0-1.08,0-1.62,0-1.2-.01-1.87-.68-1.88-1.87,0-.63-.01-1.25,0-1.88,0-.28-.07-.43-.33-.57-3.36-1.81-4.26-6.25-1.86-9.21,1.22-1.51,2.81-2.3,4.75-2.33,1.15-.02,2.3-.09,3.44,.21,2.89,.75,4.88,3.67,4.52,6.63-.26,2.15-1.37,3.7-3.24,4.75-.19,.11-.26,.22-.25,.43,.01,.66,0,1.32,0,1.99-.01,1.17-.68,1.85-1.85,1.86-.56,0-1.13,0-1.69,0Z"/><path class="cls-2" d="M16.21,19.3c-.54,.79-1.13,1.46-1.51,2.24-1.26,2.61-1.06,5.15,.59,7.55,.15,.21,.23,.42,.21,.67-.02,.22,0,.45,0,.67-.03,.93-.59,1.55-1.52,1.58-1.12,.04-2.25,.04-3.38,0-.92-.03-1.48-.65-1.51-1.59-.01-.35-.02-.69,0-1.04,.02-.25-.09-.37-.3-.49-1.8-1.04-2.83-2.59-2.91-4.68-.11-2.97,2.04-5.46,5-5.77,1.36-.14,2.74-.18,4.07,.28,.45,.16,.86,.39,1.24,.56Z"/><path class="cls-2" d="M28.71,19.4c.68-.48,1.4-.77,2.17-.88,1.37-.19,2.76-.25,4.12,.1,2.59,.66,4.39,3.35,4.07,6-.24,1.95-1.24,3.37-2.93,4.32-.18,.1-.25,.21-.25,.41,.02,.36,.01,.71,0,1.07-.03,.94-.6,1.57-1.53,1.6-1.11,.03-2.23,.03-3.34,0-.92-.03-1.49-.65-1.52-1.57-.01-.29-.02-.58,0-.87,0-.12,.05-.26,.13-.36,2.25-2.98,1.82-7.17-.74-9.64-.05-.05-.09-.1-.17-.19Z"/><path class="cls-2" d="M26.02,13.72c-.1,1.96-1.57,3.44-3.54,3.45-1.92,0-3.55-1.66-3.49-3.54,.07-2.02,1.62-3.48,3.56-3.47,1.94,0,3.52,1.68,3.47,3.56Z"/><path class="cls-2" d="M12.31,16.78c-1.66-.09-2.79-1.11-2.79-2.8,0-1.68,1.1-2.76,2.76-2.77,1.65,0,2.78,1.06,2.79,2.78,0,1.64-1.08,2.69-2.76,2.79Z"/><path class="cls-2" d="M32.7,16.78c-1.61-.09-2.76-1.06-2.78-2.78-.01-1.66,1.07-2.79,2.77-2.8,1.67,0,2.74,1.09,2.79,2.79,.04,1.54-1.24,2.78-2.78,2.78Z"/></g></svg>