<?xml version="1.0" encoding="UTF-8"?><svg id="_이어_3" xmlns="http://www.w3.org/2000/svg" viewBox="0 0 20 20"><defs><style>.cls-1{fill:#8e6646;}</style></defs><path class="cls-1" d="M10,.5C4.75,.5,.5,4.75,.5,10s4.25,9.5,9.5,9.5,9.5-4.25,9.5-9.5S15.25,.5,10,.5Zm.12,2.05c1.28,0,2.32,1.04,2.32,2.32s-1.04,2.32-2.32,2.32-2.32-1.04-2.32-2.32,1.04-2.32,2.32-2.32Zm3.04,13.91H7.08c-.4,0-.72-.32-.72-.72s.32-.72,.72-.72h.72v-5.21h-.72c-.4,0-.72-.32-.72-.72s.32-.72,.72-.72h4.72c.35,0,.64,.28,.64,.64v6.03h.72c.4,0,.72,.32,.72,.72s-.32,.72-.72,.72Z"/></svg>