<?xml version="1.0" encoding="utf-8"?>
<!-- Generator: Adobe Illustrator 26.3.0, SVG Export Plug-In . SVG Version: 6.00 Build 0)  -->
<svg version="1.1" id="_이어_3" xmlns="http://www.w3.org/2000/svg" xmlns:xlink="http://www.w3.org/1999/xlink" x="0px" y="0px"
	 viewBox="0 0 20 20" style="enable-background:new 0 0 20 20;" xml:space="preserve">
<style type="text/css">
	.st0{fill:#1889D0;}
</style>
<path class="st0" d="M10,0.8c-5.1,0-9.2,4.1-9.2,9.2s4.1,9.2,9.2,9.2s9.2-4.1,9.2-9.2S15.1,0.8,10,0.8z M10.1,3.8
	c1.1,0,1.9,0.8,1.9,1.9s-0.9,1.9-1.9,1.9S8.2,6.7,8.2,5.7S9.1,3.8,10.1,3.8z M12.6,15.2h-5c-0.3,0-0.6-0.3-0.6-0.6S7.3,14,7.6,14
	h0.6V9.7H7.6C7.3,9.7,7,9.5,7,9.1s0.3-0.6,0.6-0.6h3.9c0.3,0,0.5,0.2,0.5,0.5V14h0.6c0.3,0,0.6,0.3,0.6,0.6S12.9,15.2,12.6,15.2z"/>
</svg>
