<?xml version="1.0" encoding="utf-8"?>
<!-- Generator: Adobe Illustrator 26.3.0, SVG Export Plug-In . SVG Version: 6.00 Build 0)  -->
<svg version="1.1" id="_이어_2" xmlns="http://www.w3.org/2000/svg" xmlns:xlink="http://www.w3.org/1999/xlink" x="0px" y="0px"
	 viewBox="0 0 20 20" style="enable-background:new 0 0 20 20;" xml:space="preserve">
<style type="text/css">
	.st0{fill:#1889D0;}
</style>
<path class="st0" d="M10,0.1c3.8,0.1,6.7,2.6,7.3,6.3c0.2,1.5-0.1,2.9-0.7,4.2c-1.2,2.6-2.8,5-4.5,7.2c-0.3,0.5-0.7,0.9-1,1.4
	c-0.7,0.8-1.5,0.9-2.1,0c-0.8-1-1.6-2.1-2.3-3.2c-1.2-1.7-2.3-3.5-3.2-5.4C3,9.7,2.6,8.6,2.6,7.5c0-1.3,0.3-2.6,1-3.8
	C5.1,1.4,7.2,0.2,10,0.1z M10,4.5C8.6,4.5,7.5,5.7,7.5,7c0,1.4,1.1,2.5,2.5,2.5c1.4,0,2.5-1.1,2.5-2.5C12.5,5.7,11.4,4.6,10,4.5z"/>
</svg>
