<?xml version="1.0" encoding="UTF-8"?><svg id="_이어_2" xmlns="http://www.w3.org/2000/svg" viewBox="0 0 20 20"><defs><style>.cls-1{fill:#8e6646;}</style></defs><path class="cls-1" d="M10.03,.1c3.78,.09,6.73,2.64,7.32,6.35,.23,1.49-.13,2.87-.74,4.21-1.19,2.61-2.81,4.96-4.52,7.25-.34,.45-.68,.9-1.03,1.35-.67,.84-1.46,.85-2.13,0-.8-1.04-1.58-2.09-2.34-3.16-1.21-1.71-2.33-3.49-3.19-5.41-.45-1.01-.82-2.06-.83-3.18,0-1.33,.31-2.61,1.01-3.75C5.05,1.37,7.23,.21,10.03,.1Zm0,4.45c-1.38,0-2.51,1.11-2.52,2.48,0,1.36,1.1,2.49,2.45,2.51,1.38,.02,2.52-1.09,2.54-2.46,.01-1.38-1.1-2.52-2.47-2.53Z"/></svg>