<?xml version="1.0" encoding="UTF-8"?><svg id="_이어_10" xmlns="http://www.w3.org/2000/svg" viewBox="0 0 45 45"><defs><style>.cls-1{fill:#e2a26d;}.cls-1,.cls-2{stroke:#939393;stroke-linecap:round;stroke-linejoin:round;stroke-width:.21px;}.cls-2{fill:#fff;}</style></defs><circle class="cls-1" cx="22.5" cy="22.5" r="21.5"/><g><path class="cls-2" d="M26.47,8.25c.11,.04,.22,.08,.31,.18,.09,.1,.14,.22,.14,.35,0,.9,0,1.81,0,2.71,0,.31-.24,.54-.55,.54-3.12,0-6.23,0-9.35,0-.31,0-.55-.23-.55-.53,0-.91,0-1.82,0-2.73,0-.24,.16-.44,.4-.51,.02,0,.03-.01,.04-.02h9.56Z"/><g><path class="cls-2" d="M37.2,15.04c-.03,.15-.04,.29-.08,.44-.07,.32-.23,.61-.38,.9-.37,.73-.73,1.46-1.1,2.19l-.04,.08-4.49-2.26c.07-.13,.13-.26,.19-.38,.38-.76,.76-1.52,1.14-2.27,.72-1.4,2.51-1.81,3.77-.85,.58,.44,.9,1.04,.98,1.77,0,.03,0,.05,.01,.08v.32Z"/><path class="cls-2" d="M30.63,17.33l4.49,2.26-4.49,8.91c-1.25-1.21-2.71-2.02-4.42-2.41l4.41-8.76Z"/><path class="cls-2" d="M25.88,27.13c.18,.04,.35,.06,.51,.1,.59,.15,1.14,.4,1.67,.68,.5,.27,.97,.57,1.4,.95,.17,.14,.32,.31,.49,.47-.05,.03-.08,.05-.11,.07-.92,.54-1.84,1.08-2.76,1.62-.37,.22-.78,0-.83-.42-.12-1.09-.23-2.17-.35-3.26,0-.06-.01-.12-.02-.21Z"/></g><path class="cls-2" d="M31.42,29.33s-.02,.02-.02,.03c-.16,.36-.44,.61-.77,.81-1.02,.59-2.03,1.19-3.05,1.79-.98,.58-2.26-.07-2.38-1.21-.1-.98-.21-1.95-.31-2.93-.02-.22-.05-.45-.07-.67-.04-.36,.03-.69,.2-1.02,.68-1.34,1.35-2.67,2.02-4.01,.55-1.1,1.11-2.2,1.66-3.29,.91-1.8,1.81-3.6,2.72-5.4,.02-.03,.02-.07,.02-.11,0-.63,0-1.25,0-1.88,0-.92-.67-1.68-1.58-1.81-.08-.01-.15-.02-.23-.02-.52,0-1.05,0-1.57,0-.02,0-.04,0-.06,0v.08c0,.59,0,1.19,0,1.78,0,.81-.56,1.47-1.36,1.6-.07,.01-.15,.02-.23,.02-3.12,0-6.24,0-9.36,0-.91,0-1.62-.71-1.62-1.62,0-.6,0-1.2,0-1.8v-.07s-.05,0-.08,0c-.52,0-1.04,0-1.55,0-.91,0-1.68,.67-1.8,1.58,0,.02-.01,.05-.02,.07v21.99c.01,.06,.02,.13,.04,.19,.15,.76,.78,1.34,1.55,1.43,.02,0,.03,0,.05,.01H29.79c.1-.02,.21-.04,.31-.07,.78-.22,1.32-.92,1.33-1.73,0-1.24,0-2.47,0-3.71,0-.01,0-.03,0-.05Zm-9.57,1.39c-.14,.21-.36,.23-.58,.23-.99,0-4.74,0-5.62,0-.48,0-.75-.36-.61-.78,.08-.25,.3-.39,.62-.39,.94,0,4.71,0,5.65,0,.25,0,.47,.07,.59,.3,.11,.22,.09,.44-.05,.64Zm0-3.37c-.14,.21-.36,.23-.58,.23-.99,0-4.74,0-5.62,0-.48,0-.75-.36-.61-.78,.08-.25,.3-.39,.62-.39,.94,0,4.71,0,5.65,0,.25,0,.47,.07,.59,.3,.11,.22,.09,.44-.05,.64Zm0-3.38c-.14,.21-.36,.23-.58,.23h-5.62c-.48,0-.75-.35-.62-.77,.08-.25,.29-.39,.62-.4,.8,0,4.57,0,5.65,0,.25,0,.47,.06,.59,.3,.11,.22,.1,.44-.04,.64Zm1.67-3.36c-.14,.2-.36,.22-.58,.22-1.59,0-7.02,0-7.3,0-.4,0-.63-.23-.64-.58,0-.35,.25-.59,.65-.59,.95,0,6.41,0,7.35,0,.24,0,.45,.07,.57,.29,.12,.22,.1,.45-.05,.66Zm-7.88-3.16c-.4,0-.63-.23-.64-.58,0-.35,.25-.59,.65-.59,.95,0,8.09,0,9.04,0,.24,0,.45,.07,.57,.29,.12,.23,.1,.45-.05,.66-.14,.2-.36,.22-.58,.22-1.59,0-8.71,0-8.99,0Z"/></g></svg>