<?xml version="1.0" encoding="UTF-8"?><svg id="_이어_1" xmlns="http://www.w3.org/2000/svg" viewBox="0 0 350 140"><defs><style>.cls-1{fill:#ce9057;}.cls-2{fill:#2d1603;}.cls-3{stroke-width:4.94px;}.cls-3,.cls-4{fill:#f9f4b7;stroke:#2d1603;stroke-linecap:round;stroke-linejoin:round;}.cls-4{stroke-width:4.19px;}</style></defs><rect class="cls-2" x="4.89" y="5.43" width="343.7" height="133.57" rx="66.75" ry="66.75"/><path class="cls-2" d="M278.36,134.6h0l-210.2-.03c-17.83,0-34.59-6.95-47.2-19.56C8.35,102.41,1.41,85.64,1.41,67.81v-.07C1.42,30.94,31.36,1,68.16,1h0l210.2,.03c17.83,0,34.59,6.95,47.2,19.56,12.61,12.61,19.55,29.37,19.54,47.2v.07c0,36.8-29.95,66.74-66.75,66.74Z"/><path class="cls-1" d="M278.36,127.24h0c32.74,0,59.38-26.63,59.38-59.38v-.07c0-15.86-6.17-30.78-17.39-41.99-11.21-11.22-26.13-17.4-41.99-17.4l-210.2-.03h0c-32.74,0-59.38,26.63-59.39,59.38v.07c0,15.86,6.17,30.78,17.39,41.99,11.21,11.22,26.13,17.4,41.99,17.4l210.2,.03Z"/><g><g><path class="cls-3" d="M301.93,55.47c2.68-1.53,4.49-4.41,4.49-7.71,0-4.9-3.97-8.88-8.88-8.88-4.6,0-8.38,3.5-8.83,7.98-1.9-.47-3.9-.73-5.96-.73s-4.05,.25-5.96,.73c-.45-4.48-4.23-7.98-8.83-7.98-4.9,0-8.88,3.97-8.88,8.88,0,3.3,1.81,6.18,4.49,7.71-2.97,3.86-4.73,8.66-4.73,13.85,0,12.81,10.71,23.19,23.91,23.19s23.91-10.38,23.91-23.19c0-5.19-1.76-9.98-4.73-13.85Z"/><g><line class="cls-4" x1="275.24" y1="61.27" x2="290.79" y2="76.82"/><line class="cls-4" x1="290.79" y1="61.27" x2="275.24" y2="76.82"/></g></g><g><g><path class="cls-2" d="M76.88,83.36v-6.47h-6.64c-.84,6.77-5.71,10.16-12.44,10.16-7.47,0-12.76-4.13-12.76-12.43v-17.07c0-8.31,5.29-12.44,12.76-12.44,6.31,0,10.95,2.97,12.25,8.86h6.82v-5.01c0-3.02,2.09-4.59,4.55-4.59s4.59,1.62,4.59,4.59v34.4c0,2.52-2.05,4.57-4.57,4.57h0c-2.52,0-4.57-2.05-4.57-4.57Zm-22.88-8.42c0,3.2,1.63,4.55,3.8,4.55s3.8-1.35,3.8-4.55v-17.72c0-3.16-1.62-4.55-3.8-4.55s-3.8,1.39-3.8,4.55v17.72Zm16.43-5.75h6.45v-7.52h-6.45v7.52Z"/><path class="cls-2" d="M91.34,60.19v-3.25c0-.97,.18-1.85,.56-2.64-1.67-.33-2.51-1.53-2.51-2.97,0-1.67,1.07-3.2,3.34-3.2h4.83c0-2.78,1.72-4.08,4.18-4.08s4.13,1.35,4.17,4.08h4.73c2.32,0,3.29,1.53,3.29,3.2,0,1.44-.7,2.69-2.37,2.97,.32,.79,.56,1.67,.56,2.64v3.25c0,6.26-4.78,9.23-10.39,9.23s-10.39-2.97-10.39-9.23Zm10.95,27.88c-6.45,0-9.42-3.48-9.42-8.44s2.97-8.54,9.42-8.54h21.72c6.36,0,9.42,3.53,9.42,8.54s-3.06,8.44-9.42,8.44h-21.72Zm1.9-27.84v-3.34c0-2.04-1.25-2.74-2.46-2.74s-2.46,.7-2.46,2.74v3.34c0,2.04,1.25,2.74,2.46,2.74s2.46-.7,2.46-2.74Zm17.31,21.57c1.9,0,2.51-.98,2.51-2.18s-.6-2.09-2.51-2.09h-16.7c-1.9,0-2.51,.88-2.51,2.09s.6,2.18,2.51,2.18h16.7Zm3.57-21.25h-1.95v5.06c0,2.23-1.81,4.04-4.04,4.04h0c-2.23,0-4.04-1.81-4.04-4.04v-17.31c0-2.6,1.9-3.94,4.04-3.94s4.04,1.39,4.04,3.94v5.1h1.95v-5.1c0-2.6,1.9-3.94,4.04-3.94s4.08,1.39,4.08,3.94v17.28c0,2.24-1.82,4.06-4.06,4.06h0c-2.24,0-4.06-1.82-4.06-4.06v-5.03Z"/><path class="cls-2" d="M166.97,63.85v-.28c0-2.92,2.13-3.99,4.64-3.99s4.64,1.12,4.64,3.99v.28h13.27c2.65,0,3.62,1.76,3.62,3.48s-1.02,3.39-3.62,3.39h-36.19c-2.6,0-3.62-1.62-3.62-3.39s.97-3.48,3.62-3.48h13.64Zm16.2,8.91c5.85,0,8.68,3.25,8.68,7.65s-2.83,7.65-8.68,7.65h-23.48c-5.85,0-8.68-3.25-8.68-7.65s2.83-7.65,8.68-7.65h23.48Zm-2.69,9.14c1.67,0,1.95-.79,1.95-1.49s-.28-1.48-1.95-1.48h-18.1c-1.67,0-1.95,.79-1.95,1.48s.28,1.49,1.95,1.49h18.1Z"/><path class="cls-2" d="M205,79.58v-6.87c-4.73-.65-6.87-3.8-6.87-7.84v-.93c0-4.55,2.79-8.17,8.91-8.17h20.28v-1.39c0-.6-.18-1.3-1.25-1.3h-24.08c-2.23,0-3.57-1.76-3.57-3.67s1.35-3.67,3.57-3.67h26.59c6.4,0,8.21,2.92,8.21,7.33v6.14c0,2.09-1.7,3.79-3.79,3.79h-23.54c-1.16,0-1.67,.42-1.67,1.3v.19c0,.88,.51,1.3,1.67,1.3h24.64c2.6,0,3.57,1.86,3.57,3.57s-1.02,3.48-3.57,3.48h-3.29v6.73h4.87c2.83,0,3.9,1.85,3.9,3.71s-1.12,3.71-3.9,3.71h-35.64c-2.79,0-3.9-1.81-3.9-3.71s1.07-3.71,3.9-3.71h4.96Zm9.14,0h7.52v-6.73h-7.52v6.73Z"/></g><path class="cls-2" d="M184.05,61.42c1.1,.38,2.72,.7,4.84,.44,2.04-.25,2.85-.88,3.16-1.47,0-.07,.04-.14,.04-.21,0-.61-.32-1.23-.63-1.74-2.44-3.95-7.12-5.25-11.49-5.4-1.35-.05-2.74-.05-4.08,.05,.23-.51,.47-1.02,.6-1.58h11.14c2.6,0,3.66-1.48,3.66-3.25s-1.02-3.25-3.66-3.25h-32.39c-2.64,0-3.67,1.48-3.67,3.25s1.07,3.25,3.67,3.25h12.3c-1.81,2.41-6.96,3.53-12.76,3.25-2.13-.09-3.71,.79-3.99,2.64-.32,2.32,.97,4.04,3.48,4.13,5.43,.23,11.46-.88,15.87-3.2,1.72-.32,3.34-.32,4.87-.32,1.8,0,3.66,.44,5.3,1.17,1.37,.61,2.5,1.52,3.75,2.25Z"/></g></g></svg>